<svg width="40" height="41" viewBox="0 0 40 41" fill="none" xmlns="http://www.w3.org/2000/svg">
<path d="M40.0008 20.0608C40.0008 8.98483 31.0448 0.00292969 20.0008 0.00292969C8.95679 0.00292969 0.000793457 8.98483 0.000793457 20.0608C0.000793457 31.1367 8.95679 40.1187 20.0008 40.1187C20.1183 40.1187 20.2352 40.1162 20.3524 40.1141V24.4999H16.0555V19.4777H20.3524V15.7821C20.3524 11.496 22.9613 9.16327 26.7736 9.16327C28.5991 9.16327 30.1683 9.29977 30.6258 9.36067V13.8401H27.997C25.923 13.8401 25.5214 14.8287 25.5214 16.2791V19.4777H30.4805L29.8342 24.4999H25.5214V39.3437C33.8811 36.9402 40.0008 29.2162 40.0008 20.0608Z" fill="white"/>
</svg>
