<svg width="1286" height="3741" viewBox="0 0 1286 3741" fill="none" xmlns="http://www.w3.org/2000/svg">
<g clip-path="url(#clip0)">
<path d="M1204.84 1504.26L1195.58 1495L1204.84 1485.74C1206.63 1483.95 1206.63 1481.04 1204.84 1479.25C1203.05 1477.46 1200.14 1477.46 1198.35 1479.25L1189.09 1488.51L1179.83 1479.25C1178.04 1477.46 1175.14 1477.46 1173.34 1479.25C1171.55 1481.04 1171.55 1483.95 1173.34 1485.74L1182.6 1495L1173.34 1504.26C1171.55 1506.05 1171.55 1508.96 1173.34 1510.75C1174.24 1511.64 1175.41 1512.09 1176.59 1512.09C1177.76 1512.09 1178.94 1511.64 1179.83 1510.75L1189.09 1501.49L1198.35 1510.75C1200.14 1512.54 1203.05 1512.54 1204.84 1510.75C1206.63 1508.96 1206.63 1506.05 1204.84 1504.26ZM1250.66 1478.38C1248.86 1476.58 1245.96 1476.58 1244.17 1478.38L1236.33 1486.21L1228.49 1478.37C1226.69 1476.58 1223.79 1476.58 1222 1478.37C1220.2 1480.17 1220.2 1483.07 1222 1484.86L1231.74 1494.6V1508.38C1231.74 1510.91 1233.79 1512.97 1236.33 1512.97C1238.86 1512.97 1240.91 1510.91 1240.91 1508.38V1494.61L1250.66 1484.86C1252.45 1483.07 1252.45 1480.17 1250.66 1478.38ZM1221.28 1490.41H1218.92V1488.05C1218.92 1485.52 1216.87 1483.46 1214.33 1483.46C1211.8 1483.46 1209.74 1485.52 1209.74 1488.05V1490.41H1207.38C1204.85 1490.41 1202.8 1492.47 1202.8 1495C1202.8 1497.54 1204.85 1499.59 1207.38 1499.59H1209.74V1501.95C1209.74 1504.49 1211.8 1506.54 1214.33 1506.54C1216.87 1506.54 1218.92 1504.49 1218.92 1501.95V1499.59H1221.28C1223.82 1499.59 1225.87 1497.54 1225.87 1495C1225.87 1492.47 1223.82 1490.41 1221.28 1490.41Z" fill="#1E90FF" fill-opacity="0.5"/>
</g>
<g clip-path="url(#clip1)">
<path d="M1159.84 2439.26L1150.58 2430L1159.84 2420.74C1161.63 2418.95 1161.63 2416.04 1159.84 2414.25C1158.05 2412.46 1155.14 2412.46 1153.35 2414.25L1144.09 2423.51L1134.83 2414.25C1133.04 2412.46 1130.14 2412.46 1128.34 2414.25C1126.55 2416.04 1126.55 2418.95 1128.34 2420.74L1137.6 2430L1128.34 2439.26C1126.55 2441.05 1126.55 2443.96 1128.34 2445.75C1129.24 2446.64 1130.41 2447.09 1131.59 2447.09C1132.76 2447.09 1133.94 2446.64 1134.83 2445.75L1144.09 2436.49L1153.35 2445.75C1155.14 2447.54 1158.05 2447.54 1159.84 2445.75C1161.63 2443.96 1161.63 2441.05 1159.84 2439.26ZM1205.66 2413.38C1203.86 2411.58 1200.96 2411.58 1199.17 2413.38L1191.33 2421.21L1183.49 2413.37C1181.69 2411.58 1178.79 2411.58 1177 2413.37C1175.2 2415.17 1175.2 2418.07 1177 2419.86L1186.74 2429.6V2443.38C1186.74 2445.91 1188.79 2447.97 1191.33 2447.97C1193.86 2447.97 1195.91 2445.91 1195.91 2443.38V2429.61L1205.66 2419.86C1207.45 2418.07 1207.45 2415.17 1205.66 2413.38ZM1176.28 2425.41H1173.92V2423.05C1173.92 2420.52 1171.87 2418.46 1169.33 2418.46C1166.8 2418.46 1164.74 2420.52 1164.74 2423.05V2425.41H1162.38C1159.85 2425.41 1157.8 2427.47 1157.8 2430C1157.8 2432.54 1159.85 2434.59 1162.38 2434.59H1164.74V2436.95C1164.74 2439.49 1166.8 2441.54 1169.33 2441.54C1171.87 2441.54 1173.92 2439.49 1173.92 2436.95V2434.59H1176.28C1178.82 2434.59 1180.87 2432.54 1180.87 2430C1180.87 2427.47 1178.82 2425.41 1176.28 2425.41Z" fill="#1E90FF" fill-opacity="0.5"/>
</g>
<path d="M140.668 3684C140.668 3681.43 138.574 3679.33 136 3679.33C133.426 3679.33 131.332 3681.43 131.332 3684C131.332 3686.58 133.426 3688.67 136 3688.67C138.574 3688.67 140.668 3686.58 140.668 3684ZM133.676 3684C133.676 3682.72 134.719 3681.68 136 3681.68C136.204 3681.68 136.4 3681.71 136.588 3681.76L133.754 3684.59C133.705 3684.4 133.676 3684.21 133.676 3684ZM138.246 3683.41C138.295 3683.6 138.324 3683.8 138.324 3684C138.324 3685.28 137.281 3686.33 136 3686.33C135.796 3686.33 135.6 3686.3 135.412 3686.25L138.246 3683.41Z" fill="white" fill-opacity="0.5"/>
<path d="M136.875 3714.95L136.787 3712.61C136.049 3712.64 135.301 3712.63 134.569 3712.58L134.408 3714.91C134.934 3714.95 135.47 3714.97 136 3714.97C136.29 3714.97 136.585 3714.96 136.875 3714.95Z" fill="white" fill-opacity="0.5"/>
<path d="M144.872 3713.18L143.961 3711.02C143.283 3711.31 142.581 3711.56 141.877 3711.77L142.548 3714.02C143.334 3713.78 144.116 3713.5 144.872 3713.18Z" fill="white" fill-opacity="0.5"/>
<path d="M140.953 3714.43L140.447 3712.14C139.73 3712.3 138.994 3712.42 138.261 3712.5L138.517 3714.83C139.334 3714.74 140.153 3714.61 140.953 3714.43Z" fill="white" fill-opacity="0.5"/>
<path d="M133.099 3712.42C132.369 3712.32 131.638 3712.17 130.926 3711.99L130.347 3714.26C131.142 3714.47 131.957 3714.63 132.77 3714.74L133.099 3712.42Z" fill="white" fill-opacity="0.5"/>
<path d="M126.47 3712.89C127.216 3713.23 127.989 3713.54 128.767 3713.8L129.509 3711.58C128.811 3711.34 128.118 3711.07 127.449 3710.76L126.47 3712.89Z" fill="white" fill-opacity="0.5"/>
<path d="M149.626 3673.81C148.968 3673.32 148.276 3672.86 147.569 3672.45L146.38 3674.46C147.014 3674.84 147.635 3675.25 148.226 3675.69L149.626 3673.81Z" fill="white" fill-opacity="0.5"/>
<path d="M146.121 3671.66C145.385 3671.3 144.621 3670.97 143.851 3670.69L143.045 3672.89C143.736 3673.14 144.421 3673.43 145.081 3673.76L146.121 3671.66Z" fill="white" fill-opacity="0.5"/>
<path d="M143.295 3694.36L141.265 3695.53L148.821 3708.62L150.85 3707.44L143.295 3694.36Z" fill="white" fill-opacity="0.5"/>
<path d="M151.632 3708.8L149.602 3709.97L150.774 3712L152.804 3710.83L151.632 3708.8Z" fill="white" fill-opacity="0.5"/>
<path d="M154.761 3714.21L153.59 3712.18L151.56 3713.35L152.732 3715.38L154.761 3714.21Z" fill="white" fill-opacity="0.5"/>
<path d="M129.617 3697.46L127.587 3696.28L126.415 3698.31L128.445 3699.49L129.617 3697.46Z" fill="white" fill-opacity="0.5"/>
<path d="M125.713 3704.22L123.683 3703.05L122.511 3705.08L124.541 3706.25L125.713 3704.22Z" fill="white" fill-opacity="0.5"/>
<path d="M127.666 3700.84L125.636 3699.67L124.464 3701.7L126.494 3702.87L127.666 3700.84Z" fill="white" fill-opacity="0.5"/>
<path d="M106.744 3736.27V3729.12H99.5923V3736.27H106.744ZM101.936 3731.47H104.4V3733.93H101.936V3731.47Z" fill="white" fill-opacity="0.5"/>
<path d="M147.692 3724.89H145.348V3727.23H147.692V3724.89Z" fill="white" fill-opacity="0.5"/>
<path d="M143.786 3724.89H118.864V3727.23H143.786V3724.89Z" fill="white" fill-opacity="0.5"/>
<path d="M151.598 3724.89H149.255V3727.23H151.598V3724.89Z" fill="white" fill-opacity="0.5"/>
<path d="M98.3438 3722.25H112.075L112.423 3723.55L113.093 3723.94L111.408 3726.86L113.437 3728.03L115.123 3725.11L117.089 3726.24L117.089 3726.24L117.089 3726.24L119.394 3722.25H152.605L154.91 3726.24L154.911 3726.24L154.911 3726.24L156.877 3725.11L158.563 3728.03L160.593 3726.86L158.907 3723.94L159.577 3723.55L159.925 3722.25H165.105V3719.91H160.553L161.055 3718.03L154.124 3706.03C157.166 3702.06 158.834 3697.16 158.834 3692.14C158.834 3685.49 155.946 3679.19 150.911 3674.84L149.38 3676.62C153.899 3680.52 156.49 3686.17 156.49 3692.14C156.49 3696.31 155.205 3700.4 152.842 3703.81L144.366 3689.12L144.62 3688.98V3679.03L140.608 3676.71V3664.46L138.282 3662.13H133.719L131.392 3664.46V3676.71L127.38 3679.03V3688.98L127.634 3689.12L119.156 3703.81C116.766 3700.38 115.51 3696.37 115.51 3692.14C115.51 3683.53 120.947 3675.78 129.04 3672.86L128.243 3670.65C119.225 3673.91 113.166 3682.54 113.166 3692.14C113.166 3697.22 114.794 3702.01 117.876 3706.03L110.945 3718.03L111.447 3719.91H96V3739.87H103.73V3737.52H98.3438V3722.25ZM133.736 3665.43L134.689 3664.48H137.311L138.264 3665.43V3675.36L138.23 3675.34L137.172 3674.73V3667.5H134.828V3674.73L133.77 3675.34L133.736 3675.36V3665.43ZM129.724 3680.38L136 3676.76L142.276 3680.38V3687.63L136 3691.25L129.724 3687.63V3680.38ZM129.663 3690.3L133.768 3692.67L127.916 3702.8L129.945 3703.97L135.798 3693.84L136 3693.95L136.202 3693.84L149.867 3717.51L151.897 3716.33L138.232 3692.67L142.337 3690.3L158.54 3718.36L157.564 3722L155.769 3723.04L153.069 3718.36L151.039 3719.54L151.253 3719.91H120.748L128.773 3706L126.744 3704.83L121.801 3713.39C121.015 3712.11 119.602 3711.26 117.993 3711.26C117.843 3711.26 117.694 3711.27 117.548 3711.28L129.663 3690.3ZM117.993 3713.6C119.164 3713.6 120.117 3714.56 120.117 3715.73C120.117 3716.9 119.164 3717.85 117.993 3717.85C116.822 3717.85 115.87 3716.9 115.87 3715.73C115.87 3714.56 116.822 3713.6 117.993 3713.6ZM113.922 3717.56C114.608 3719.08 116.117 3720.15 117.876 3720.19L116.231 3723.04L114.436 3722L113.46 3718.36L113.922 3717.56Z" fill="white" fill-opacity="0.5"/>
<path d="M167.449 3719.91V3722.25H173.656V3737.52H166.998V3734.16H164.654V3737.52H159.171V3734.16H156.827V3737.52H151.344V3734.16H149V3737.52H143.517V3734.16H141.173V3737.52H135.69V3734.16H133.347V3737.52H127.863V3734.16H125.52V3737.52H120.036V3734.16H117.693V3737.52H112.21V3734.16H109.866V3737.52H106.074V3739.87H176V3719.91H167.449Z" fill="white" fill-opacity="0.5"/>
<path d="M171.938 3727.94H169.594V3730.28H171.938V3727.94Z" fill="white" fill-opacity="0.5"/>
<path d="M171.938 3724.03H169.594V3726.38H171.938V3724.03Z" fill="white" fill-opacity="0.5"/>
<path d="M168.344 3724.03H166V3726.38H168.344V3724.03Z" fill="white" fill-opacity="0.5"/>
<path d="M168.344 3727.94H166V3730.28H168.344V3727.94Z" fill="white" fill-opacity="0.5"/>
<path d="M658.839 1663.23C661.685 1663.23 664 1660.91 664 1658.06V1655.48C664 1652.64 661.685 1650.32 658.839 1650.32H648.516V1647.74C649.939 1647.74 651.097 1646.58 651.097 1645.16V1642.58C651.097 1641.16 649.939 1640 648.516 1640H586.581C585.157 1640 584 1641.16 584 1642.58V1645.16C584 1646.58 585.157 1647.74 586.581 1647.74V1674.28L584 1671.85V1720H634.987L599.466 1686.45H635.613V1708.39C635.613 1710.52 637.35 1712.26 639.484 1712.26H660.129C662.263 1712.26 664 1710.52 664 1708.39V1674.84C664 1672.7 662.263 1670.97 660.129 1670.97H648.516V1663.23H658.839ZM653.677 1655.48H625.29V1652.9H653.677V1655.48ZM622.71 1659.52L618.585 1656.77L622.71 1654.02V1659.52ZM625.29 1658.06H653.677V1660.65H625.29V1658.06ZM661.419 1655.48V1658.06C661.419 1659.49 660.262 1660.65 658.839 1660.65H656.258V1652.9H658.839C660.262 1652.9 661.419 1654.06 661.419 1655.48ZM586.581 1642.58H648.516L648.517 1645.16H586.581V1642.58ZM586.581 1717.42V1714.84H589.161V1712.26H586.581V1709.68H589.161V1707.1H586.581V1704.52H589.161V1701.94H586.581V1699.35H589.161V1696.77H586.581V1694.19H589.161V1691.61H586.581V1689.03H589.161V1686.45H586.581V1677.83L628.497 1717.42H586.581ZM661.419 1674.84V1708.39C661.419 1709.1 660.84 1709.68 660.129 1709.68H639.484C638.773 1709.68 638.194 1709.1 638.194 1708.39V1674.84C638.194 1674.13 638.773 1673.55 639.484 1673.55H660.129C660.84 1673.55 661.419 1674.13 661.419 1674.84ZM645.935 1670.97H624V1673.55H635.85C635.706 1673.95 635.613 1674.38 635.613 1674.84V1676.13H624V1678.71H635.613V1683.87H596.733L589.161 1676.72V1647.74H645.935V1650.32H623.609L613.931 1656.77L623.609 1663.23H645.935V1670.97Z" fill="#1E90FF" fill-opacity="0.5"/>
<path d="M611.097 1655.48H602.226L599.894 1672.96L596.232 1668.39H591.742V1670.97H594.994L601.654 1679.29L604.484 1658.06H611.097V1655.48Z" fill="#1E90FF" fill-opacity="0.5"/>
<path d="M619.217 1662.31L613.677 1667.85L608.138 1662.31L606.313 1664.14L611.853 1669.68L606.313 1675.22L608.138 1677.04L613.677 1671.5L619.217 1677.04L621.041 1675.22L615.502 1669.68L621.041 1664.14L619.217 1662.31Z" fill="#1E90FF" fill-opacity="0.5"/>
<path d="M624 1665.81H643.355V1668.39H624V1665.81Z" fill="#1E90FF" fill-opacity="0.5"/>
<path d="M591.742 1689.81V1712.26H615.513L591.742 1689.81ZM594.323 1695.79L609.023 1709.68H594.323V1695.79Z" fill="#1E90FF" fill-opacity="0.5"/>
<path d="M658.839 1676.13H640.774V1686.45H658.839V1676.13ZM656.258 1683.87H643.355V1678.71H656.258V1683.87Z" fill="#1E90FF" fill-opacity="0.5"/>
<path d="M651.097 1691.61H658.839V1694.19H651.097V1691.61Z" fill="#1E90FF" fill-opacity="0.5"/>
<path d="M640.774 1699.35H648.516V1701.94H640.774V1699.35Z" fill="#1E90FF" fill-opacity="0.5"/>
<path d="M640.774 1704.52H648.516V1707.1H640.774V1704.52Z" fill="#1E90FF" fill-opacity="0.5"/>
<path d="M643.355 1696.77H645.935V1694.19H648.516V1691.61H645.935V1689.03H643.355V1691.61H640.774V1694.19H643.355V1696.77Z" fill="#1E90FF" fill-opacity="0.5"/>
<path d="M656.636 1699.73L654.968 1701.4L653.299 1699.73L651.475 1701.56L653.143 1703.23L651.475 1704.89L653.299 1706.72L654.968 1705.05L656.636 1706.72L658.461 1704.89L656.792 1703.23L658.461 1701.56L656.636 1699.73Z" fill="#1E90FF" fill-opacity="0.5"/>
<path d="M470.284 3472.72C462.729 3465.16 452.684 3461 442 3461C431.316 3461 421.271 3465.16 413.716 3472.72C406.161 3480.27 402 3490.32 402 3501C402 3511.68 406.161 3521.73 413.716 3529.28C421.271 3536.84 431.316 3541 442 3541C452.684 3541 462.729 3536.84 470.284 3529.28C477.839 3521.73 482 3511.68 482 3501C482 3490.32 477.839 3480.27 470.284 3472.72ZM466.97 3525.97C460.3 3532.64 451.432 3536.31 442 3536.31C432.568 3536.31 423.7 3532.64 417.03 3525.97C410.361 3519.3 406.688 3510.43 406.688 3501C406.688 3491.57 410.361 3482.7 417.03 3476.03C423.7 3469.36 432.568 3465.69 442 3465.69C451.432 3465.69 460.3 3469.36 466.97 3476.03C473.639 3482.7 477.312 3491.57 477.312 3501C477.312 3510.43 473.639 3519.3 466.97 3525.97Z" fill="white" fill-opacity="0.5"/>
<path d="M451.885 3491.12V3477.32H432.115V3491.12H418.316V3510.88H432.115V3524.68H451.885V3510.88H465.684V3491.12H451.885ZM460.996 3506.2H447.197V3520H436.803V3506.2H423.004V3495.8H436.803V3482H447.197V3495.8H460.996V3506.2Z" fill="white" fill-opacity="0.5"/>
<path d="M324.839 3293.23C327.685 3293.23 330 3290.91 330 3288.06V3285.48C330 3282.64 327.685 3280.32 324.839 3280.32H314.516V3277.74C315.939 3277.74 317.097 3276.58 317.097 3275.16V3272.58C317.097 3271.16 315.939 3270 314.516 3270H252.581C251.157 3270 250 3271.16 250 3272.58V3275.16C250 3276.58 251.157 3277.74 252.581 3277.74V3304.28L250 3301.85V3350H300.987L265.466 3316.45H301.613V3338.39C301.613 3340.52 303.35 3342.26 305.484 3342.26H326.129C328.263 3342.26 330 3340.52 330 3338.39V3304.84C330 3302.7 328.263 3300.97 326.129 3300.97H314.516V3293.23H324.839ZM319.677 3285.48H291.29V3282.9H319.677V3285.48ZM288.71 3289.52L284.585 3286.77L288.71 3284.02V3289.52ZM291.29 3288.06H319.677V3290.65H291.29V3288.06ZM327.419 3285.48V3288.06C327.419 3289.49 326.262 3290.65 324.839 3290.65H322.258V3282.9H324.839C326.262 3282.9 327.419 3284.06 327.419 3285.48ZM252.581 3272.58H314.516L314.517 3275.16H252.581V3272.58ZM252.581 3347.42V3344.84H255.161V3342.26H252.581V3339.68H255.161V3337.1H252.581V3334.52H255.161V3331.94H252.581V3329.35H255.161V3326.77H252.581V3324.19H255.161V3321.61H252.581V3319.03H255.161V3316.45H252.581V3307.83L294.497 3347.42H252.581ZM327.419 3304.84V3338.39C327.419 3339.1 326.84 3339.68 326.129 3339.68H305.484C304.773 3339.68 304.194 3339.1 304.194 3338.39V3304.84C304.194 3304.13 304.773 3303.55 305.484 3303.55H326.129C326.84 3303.55 327.419 3304.13 327.419 3304.84ZM311.935 3300.97H290V3303.55H301.85C301.706 3303.95 301.613 3304.38 301.613 3304.84V3306.13H290V3308.71H301.613V3313.87H262.733L255.161 3306.72V3277.74H311.935V3280.32H289.609L279.931 3286.77L289.609 3293.23H311.935V3300.97Z" fill="white" fill-opacity="0.5"/>
<path d="M277.097 3285.48H268.226L265.894 3302.96L262.232 3298.39H257.742V3300.97H260.994L267.654 3309.29L270.484 3288.06H277.097V3285.48Z" fill="white" fill-opacity="0.5"/>
<path d="M285.217 3292.31L279.677 3297.85L274.138 3292.31L272.313 3294.14L277.853 3299.68L272.313 3305.22L274.138 3307.04L279.677 3301.5L285.217 3307.04L287.041 3305.22L281.502 3299.68L287.041 3294.14L285.217 3292.31Z" fill="white" fill-opacity="0.5"/>
<path d="M290 3295.81H309.355V3298.39H290V3295.81Z" fill="white" fill-opacity="0.5"/>
<path d="M257.742 3319.81V3342.26H281.513L257.742 3319.81ZM260.323 3325.79L275.023 3339.68H260.323V3325.79Z" fill="white" fill-opacity="0.5"/>
<path d="M324.839 3306.13H306.774V3316.45H324.839V3306.13ZM322.258 3313.87H309.355V3308.71H322.258V3313.87Z" fill="white" fill-opacity="0.5"/>
<path d="M317.097 3321.61H324.839V3324.19H317.097V3321.61Z" fill="white" fill-opacity="0.5"/>
<path d="M306.774 3329.35H314.516V3331.94H306.774V3329.35Z" fill="white" fill-opacity="0.5"/>
<path d="M306.774 3334.52H314.516V3337.1H306.774V3334.52Z" fill="white" fill-opacity="0.5"/>
<path d="M309.355 3326.77H311.935V3324.19H314.516V3321.61H311.935V3319.03H309.355V3321.61H306.774V3324.19H309.355V3326.77Z" fill="white" fill-opacity="0.5"/>
<path d="M322.636 3329.73L320.968 3331.4L319.299 3329.73L317.475 3331.56L319.143 3333.23L317.475 3334.89L319.299 3336.72L320.968 3335.05L322.636 3336.72L324.461 3334.89L322.792 3333.23L324.461 3331.56L322.636 3329.73Z" fill="white" fill-opacity="0.5"/>
<path d="M165.562 1900H112.438C111.153 1900 109.922 1900.51 109.014 1901.42C108.106 1902.33 107.595 1903.56 107.594 1904.84V1975.16C107.595 1976.44 108.106 1977.67 109.014 1978.58C109.922 1979.49 111.153 1980 112.438 1980H165.562C166.847 1980 168.078 1979.49 168.986 1978.58C169.894 1977.67 170.405 1976.44 170.406 1975.16V1904.84C170.404 1903.56 169.893 1902.33 168.985 1901.42C168.077 1900.51 166.846 1900 165.562 1900ZM168.219 1975.15C168.218 1975.86 167.938 1976.53 167.44 1977.03C166.942 1977.53 166.267 1977.81 165.562 1977.81H112.438C111.733 1977.81 111.058 1977.53 110.56 1977.03C110.062 1976.53 109.782 1975.86 109.781 1975.15V1904.84C109.782 1904.14 110.062 1903.46 110.56 1902.97C111.058 1902.47 111.733 1902.19 112.438 1902.19H165.562C166.267 1902.19 166.942 1902.47 167.44 1902.97C167.938 1903.46 168.218 1904.14 168.219 1904.84V1975.15Z" fill="#1E90FF" fill-opacity="0.5"/>
<path d="M163.062 1906.25H114.938C114.794 1906.25 114.652 1906.28 114.519 1906.33C114.386 1906.39 114.265 1906.47 114.164 1906.57C114.062 1906.67 113.982 1906.79 113.927 1906.93C113.872 1907.06 113.844 1907.2 113.844 1907.34V1921.09C113.844 1921.24 113.872 1921.38 113.927 1921.51C113.982 1921.65 114.062 1921.77 114.164 1921.87C114.265 1921.97 114.386 1922.05 114.519 1922.1C114.652 1922.16 114.794 1922.19 114.938 1922.19H163.062C163.206 1922.19 163.348 1922.16 163.481 1922.1C163.614 1922.05 163.735 1921.97 163.836 1921.87C163.938 1921.77 164.018 1921.65 164.073 1921.51C164.128 1921.38 164.156 1921.24 164.156 1921.09V1907.34C164.156 1907.2 164.128 1907.06 164.073 1906.93C164.018 1906.79 163.938 1906.67 163.836 1906.57C163.735 1906.47 163.614 1906.39 163.481 1906.33C163.348 1906.28 163.206 1906.25 163.062 1906.25ZM161.969 1920H116.031V1908.44H161.969V1920Z" fill="#1E90FF" fill-opacity="0.5"/>
<path d="M144.938 1960.95H133.063C132.772 1960.95 132.494 1961.07 132.289 1961.27C132.084 1961.48 131.969 1961.76 131.969 1962.05V1972.65C131.968 1972.8 131.996 1972.94 132.051 1973.07C132.106 1973.21 132.186 1973.33 132.288 1973.43C132.39 1973.53 132.51 1973.61 132.643 1973.67C132.776 1973.72 132.919 1973.75 133.063 1973.75H144.938C145.081 1973.75 145.223 1973.72 145.356 1973.67C145.489 1973.61 145.61 1973.53 145.711 1973.43C145.813 1973.33 145.893 1973.21 145.948 1973.07C146.003 1972.94 146.031 1972.8 146.031 1972.66V1962.05C146.031 1961.76 145.916 1961.48 145.711 1961.27C145.506 1961.07 145.228 1960.95 144.938 1960.95ZM143.843 1971.56H134.156V1963.14H143.843V1971.56Z" fill="#1E90FF" fill-opacity="0.5"/>
<path d="M126.831 1960.95H114.938C114.647 1960.95 114.369 1961.07 114.164 1961.27C113.959 1961.48 113.844 1961.76 113.844 1962.05V1972.65C113.843 1972.8 113.871 1972.94 113.926 1973.07C113.981 1973.21 114.061 1973.33 114.163 1973.43C114.265 1973.53 114.385 1973.61 114.518 1973.67C114.651 1973.72 114.794 1973.75 114.938 1973.75H126.831C126.974 1973.75 127.117 1973.72 127.249 1973.67C127.382 1973.61 127.503 1973.53 127.604 1973.43C127.706 1973.33 127.786 1973.21 127.841 1973.07C127.896 1972.94 127.924 1972.8 127.924 1972.66V1962.05C127.924 1961.76 127.809 1961.48 127.604 1961.27C127.399 1961.07 127.121 1960.95 126.831 1960.95ZM125.737 1971.56H116.031V1963.14H125.737V1971.56Z" fill="#1E90FF" fill-opacity="0.5"/>
<path d="M144.938 1943.6H133.063C132.919 1943.6 132.777 1943.63 132.644 1943.69C132.511 1943.74 132.39 1943.82 132.289 1943.92C132.187 1944.03 132.107 1944.15 132.052 1944.28C131.997 1944.41 131.969 1944.55 131.969 1944.7V1955.31C131.969 1955.45 131.997 1955.59 132.052 1955.72C132.107 1955.86 132.187 1955.98 132.289 1956.08C132.39 1956.18 132.511 1956.26 132.644 1956.32C132.777 1956.37 132.919 1956.4 133.063 1956.4H144.938C145.081 1956.4 145.223 1956.37 145.356 1956.32C145.489 1956.26 145.61 1956.18 145.711 1956.08C145.813 1955.98 145.893 1955.86 145.948 1955.72C146.003 1955.59 146.031 1955.45 146.031 1955.31V1944.7C146.031 1944.55 146.003 1944.41 145.948 1944.28C145.893 1944.15 145.813 1944.03 145.711 1943.92C145.61 1943.82 145.489 1943.74 145.356 1943.69C145.223 1943.63 145.081 1943.6 144.938 1943.6ZM143.844 1954.21H134.156V1945.79H143.844V1954.21Z" fill="#1E90FF" fill-opacity="0.5"/>
<path d="M126.831 1943.6H114.938C114.794 1943.6 114.652 1943.63 114.519 1943.69C114.386 1943.74 114.265 1943.82 114.164 1943.92C114.062 1944.03 113.982 1944.15 113.927 1944.28C113.872 1944.41 113.844 1944.55 113.844 1944.7V1955.31C113.844 1955.45 113.872 1955.59 113.927 1955.72C113.982 1955.86 114.062 1955.98 114.164 1956.08C114.265 1956.18 114.386 1956.26 114.519 1956.32C114.652 1956.37 114.794 1956.4 114.938 1956.4H126.831C126.974 1956.4 127.117 1956.37 127.249 1956.32C127.382 1956.26 127.503 1956.18 127.604 1956.08C127.706 1955.98 127.786 1955.86 127.841 1955.72C127.896 1955.59 127.924 1955.45 127.924 1955.31V1944.7C127.924 1944.55 127.896 1944.41 127.841 1944.28C127.786 1944.15 127.706 1944.03 127.604 1943.92C127.503 1943.82 127.382 1943.74 127.249 1943.69C127.117 1943.63 126.974 1943.6 126.831 1943.6ZM125.737 1954.21H116.031V1945.79H125.737V1954.21Z" fill="#1E90FF" fill-opacity="0.5"/>
<path d="M163.063 1943.6H151.169C151.026 1943.6 150.884 1943.63 150.751 1943.69C150.618 1943.74 150.497 1943.82 150.396 1943.92C150.294 1944.03 150.214 1944.15 150.159 1944.28C150.104 1944.41 150.076 1944.55 150.076 1944.7V1972.65C150.076 1972.8 150.104 1972.94 150.159 1973.07C150.214 1973.21 150.294 1973.33 150.396 1973.43C150.497 1973.53 150.618 1973.61 150.751 1973.66C150.884 1973.72 151.026 1973.75 151.169 1973.75H163.063C163.206 1973.75 163.348 1973.72 163.481 1973.66C163.614 1973.61 163.735 1973.53 163.836 1973.43C163.938 1973.33 164.018 1973.21 164.073 1973.07C164.128 1972.94 164.156 1972.8 164.156 1972.65V1944.7C164.156 1944.55 164.128 1944.41 164.073 1944.28C164.018 1944.15 163.938 1944.03 163.836 1943.92C163.735 1943.82 163.614 1943.74 163.481 1943.69C163.348 1943.63 163.206 1943.6 163.063 1943.6ZM161.969 1971.56H152.263V1945.79H161.969V1971.56Z" fill="#1E90FF" fill-opacity="0.5"/>
<path d="M144.938 1926.26H133.063C132.919 1926.25 132.777 1926.28 132.644 1926.34C132.511 1926.39 132.39 1926.47 132.289 1926.58C132.187 1926.68 132.107 1926.8 132.052 1926.93C131.997 1927.06 131.969 1927.21 131.969 1927.35V1937.96C131.969 1938.1 131.997 1938.24 132.052 1938.37C132.107 1938.51 132.187 1938.63 132.289 1938.73C132.39 1938.83 132.511 1938.91 132.644 1938.97C132.777 1939.02 132.919 1939.05 133.063 1939.05H144.938C145.081 1939.05 145.223 1939.02 145.356 1938.97C145.489 1938.91 145.61 1938.83 145.711 1938.73C145.813 1938.63 145.893 1938.51 145.948 1938.37C146.003 1938.24 146.031 1938.1 146.031 1937.96V1927.35C146.031 1927.21 146.003 1927.06 145.948 1926.93C145.893 1926.8 145.813 1926.68 145.711 1926.58C145.61 1926.47 145.489 1926.39 145.356 1926.34C145.223 1926.28 145.081 1926.25 144.938 1926.26ZM143.843 1936.86H134.156V1928.44H143.843V1936.86Z" fill="#1E90FF" fill-opacity="0.5"/>
<path d="M126.831 1926.26H114.938C114.794 1926.25 114.652 1926.28 114.519 1926.34C114.386 1926.39 114.265 1926.47 114.164 1926.58C114.062 1926.68 113.982 1926.8 113.927 1926.93C113.872 1927.06 113.844 1927.21 113.844 1927.35V1937.96C113.844 1938.1 113.872 1938.24 113.927 1938.37C113.982 1938.51 114.062 1938.63 114.164 1938.73C114.265 1938.83 114.386 1938.91 114.519 1938.97C114.652 1939.02 114.794 1939.05 114.938 1939.05H126.831C126.974 1939.05 127.117 1939.02 127.249 1938.97C127.382 1938.91 127.503 1938.83 127.604 1938.73C127.706 1938.63 127.786 1938.51 127.841 1938.37C127.896 1938.24 127.924 1938.1 127.924 1937.96V1927.35C127.924 1927.21 127.896 1927.06 127.841 1926.93C127.786 1926.8 127.706 1926.68 127.604 1926.58C127.503 1926.47 127.382 1926.39 127.249 1926.34C127.117 1926.28 126.974 1926.25 126.831 1926.26ZM125.737 1936.86H116.031V1928.44H125.737V1936.86Z" fill="#1E90FF" fill-opacity="0.5"/>
<path d="M163.063 1926.26H151.169C151.026 1926.25 150.884 1926.28 150.751 1926.34C150.618 1926.39 150.497 1926.47 150.396 1926.58C150.294 1926.68 150.214 1926.8 150.159 1926.93C150.104 1927.06 150.076 1927.21 150.076 1927.35V1937.96C150.076 1938.1 150.104 1938.24 150.159 1938.37C150.214 1938.51 150.294 1938.63 150.396 1938.73C150.497 1938.83 150.618 1938.91 150.751 1938.97C150.884 1939.02 151.026 1939.05 151.169 1939.05H163.063C163.206 1939.05 163.348 1939.02 163.481 1938.97C163.614 1938.91 163.735 1938.83 163.836 1938.73C163.938 1938.63 164.018 1938.51 164.073 1938.37C164.128 1938.24 164.156 1938.1 164.156 1937.96V1927.35C164.156 1927.21 164.128 1927.06 164.073 1926.93C164.018 1926.8 163.938 1926.68 163.836 1926.58C163.735 1926.47 163.614 1926.39 163.481 1926.34C163.348 1926.28 163.206 1926.25 163.063 1926.26ZM161.969 1936.86H152.263V1928.44H161.969V1936.86Z" fill="#1E90FF" fill-opacity="0.5"/>
<path d="M1183.56 3394H1130.44C1129.15 3394 1127.92 3394.51 1127.01 3395.42C1126.11 3396.33 1125.6 3397.56 1125.59 3398.84V3469.16C1125.6 3470.44 1126.11 3471.67 1127.01 3472.58C1127.92 3473.49 1129.15 3474 1130.44 3474H1183.56C1184.85 3474 1186.08 3473.49 1186.99 3472.58C1187.89 3471.67 1188.4 3470.44 1188.41 3469.16V3398.84C1188.4 3397.56 1187.89 3396.33 1186.99 3395.42C1186.08 3394.51 1184.85 3394 1183.56 3394ZM1186.22 3469.15C1186.22 3469.86 1185.94 3470.53 1185.44 3471.03C1184.94 3471.53 1184.27 3471.81 1183.56 3471.81H1130.44C1129.73 3471.81 1129.06 3471.53 1128.56 3471.03C1128.06 3470.53 1127.78 3469.86 1127.78 3469.15V3398.84C1127.78 3398.14 1128.06 3397.46 1128.56 3396.97C1129.06 3396.47 1129.73 3396.19 1130.44 3396.19H1183.56C1184.27 3396.19 1184.94 3396.47 1185.44 3396.97C1185.94 3397.46 1186.22 3398.14 1186.22 3398.84V3469.15Z" fill="white" fill-opacity="0.5"/>
<path d="M1181.06 3400.25H1132.94C1132.79 3400.25 1132.65 3400.28 1132.52 3400.33C1132.39 3400.39 1132.27 3400.47 1132.16 3400.57C1132.06 3400.67 1131.98 3400.79 1131.93 3400.93C1131.87 3401.06 1131.84 3401.2 1131.84 3401.34V3415.09C1131.84 3415.24 1131.87 3415.38 1131.93 3415.51C1131.98 3415.65 1132.06 3415.77 1132.16 3415.87C1132.27 3415.97 1132.39 3416.05 1132.52 3416.1C1132.65 3416.16 1132.79 3416.19 1132.94 3416.19H1181.06C1181.21 3416.19 1181.35 3416.16 1181.48 3416.1C1181.61 3416.05 1181.73 3415.97 1181.84 3415.87C1181.94 3415.77 1182.02 3415.65 1182.07 3415.51C1182.13 3415.38 1182.16 3415.24 1182.16 3415.09V3401.34C1182.16 3401.2 1182.13 3401.06 1182.07 3400.93C1182.02 3400.79 1181.94 3400.67 1181.84 3400.57C1181.73 3400.47 1181.61 3400.39 1181.48 3400.33C1181.35 3400.28 1181.21 3400.25 1181.06 3400.25ZM1179.97 3414H1134.03V3402.44H1179.97V3414Z" fill="white" fill-opacity="0.5"/>
<path d="M1162.94 3454.95H1151.06C1150.77 3454.95 1150.49 3455.07 1150.29 3455.27C1150.08 3455.48 1149.97 3455.76 1149.97 3456.05V3466.65C1149.97 3466.8 1150 3466.94 1150.05 3467.07C1150.11 3467.21 1150.19 3467.33 1150.29 3467.43C1150.39 3467.53 1150.51 3467.61 1150.64 3467.67C1150.78 3467.72 1150.92 3467.75 1151.06 3467.75H1162.94C1163.08 3467.75 1163.22 3467.72 1163.36 3467.67C1163.49 3467.61 1163.61 3467.53 1163.71 3467.43C1163.81 3467.33 1163.89 3467.21 1163.95 3467.07C1164 3466.94 1164.03 3466.8 1164.03 3466.66V3456.05C1164.03 3455.76 1163.92 3455.48 1163.71 3455.27C1163.51 3455.07 1163.23 3454.95 1162.94 3454.95ZM1161.84 3465.56H1152.16V3457.14H1161.84V3465.56Z" fill="white" fill-opacity="0.5"/>
<path d="M1144.83 3454.95H1132.94C1132.65 3454.95 1132.37 3455.07 1132.16 3455.27C1131.96 3455.48 1131.84 3455.76 1131.84 3456.05V3466.65C1131.84 3466.8 1131.87 3466.94 1131.93 3467.07C1131.98 3467.21 1132.06 3467.33 1132.16 3467.43C1132.26 3467.53 1132.39 3467.61 1132.52 3467.67C1132.65 3467.72 1132.79 3467.75 1132.94 3467.75H1144.83C1144.97 3467.75 1145.12 3467.72 1145.25 3467.67C1145.38 3467.61 1145.5 3467.53 1145.6 3467.43C1145.71 3467.33 1145.79 3467.21 1145.84 3467.07C1145.9 3466.94 1145.92 3466.8 1145.92 3466.66V3456.05C1145.92 3455.76 1145.81 3455.48 1145.6 3455.27C1145.4 3455.07 1145.12 3454.95 1144.83 3454.95ZM1143.74 3465.56H1134.03V3457.14H1143.74V3465.56Z" fill="white" fill-opacity="0.5"/>
<path d="M1162.94 3437.6H1151.06C1150.92 3437.6 1150.78 3437.63 1150.64 3437.69C1150.51 3437.74 1150.39 3437.82 1150.29 3437.92C1150.19 3438.03 1150.11 3438.15 1150.05 3438.28C1150 3438.41 1149.97 3438.55 1149.97 3438.7V3449.31C1149.97 3449.45 1150 3449.59 1150.05 3449.72C1150.11 3449.86 1150.19 3449.98 1150.29 3450.08C1150.39 3450.18 1150.51 3450.26 1150.64 3450.32C1150.78 3450.37 1150.92 3450.4 1151.06 3450.4H1162.94C1163.08 3450.4 1163.22 3450.37 1163.36 3450.32C1163.49 3450.26 1163.61 3450.18 1163.71 3450.08C1163.81 3449.98 1163.89 3449.86 1163.95 3449.72C1164 3449.59 1164.03 3449.45 1164.03 3449.31V3438.7C1164.03 3438.55 1164 3438.41 1163.95 3438.28C1163.89 3438.15 1163.81 3438.03 1163.71 3437.92C1163.61 3437.82 1163.49 3437.74 1163.36 3437.69C1163.22 3437.63 1163.08 3437.6 1162.94 3437.6ZM1161.84 3448.21H1152.16V3439.79H1161.84V3448.21Z" fill="white" fill-opacity="0.5"/>
<path d="M1144.83 3437.6H1132.94C1132.79 3437.6 1132.65 3437.63 1132.52 3437.69C1132.39 3437.74 1132.27 3437.82 1132.16 3437.92C1132.06 3438.03 1131.98 3438.15 1131.93 3438.28C1131.87 3438.41 1131.84 3438.55 1131.84 3438.7V3449.31C1131.84 3449.45 1131.87 3449.59 1131.93 3449.72C1131.98 3449.86 1132.06 3449.98 1132.16 3450.08C1132.27 3450.18 1132.39 3450.26 1132.52 3450.32C1132.65 3450.37 1132.79 3450.4 1132.94 3450.4H1144.83C1144.97 3450.4 1145.12 3450.37 1145.25 3450.32C1145.38 3450.26 1145.5 3450.18 1145.6 3450.08C1145.71 3449.98 1145.79 3449.86 1145.84 3449.72C1145.9 3449.59 1145.92 3449.45 1145.92 3449.31V3438.7C1145.92 3438.55 1145.9 3438.41 1145.84 3438.28C1145.79 3438.15 1145.71 3438.03 1145.6 3437.92C1145.5 3437.82 1145.38 3437.74 1145.25 3437.69C1145.12 3437.63 1144.97 3437.6 1144.83 3437.6ZM1143.74 3448.21H1134.03V3439.79H1143.74V3448.21Z" fill="white" fill-opacity="0.5"/>
<path d="M1181.06 3437.6H1169.17C1169.03 3437.6 1168.88 3437.63 1168.75 3437.69C1168.62 3437.74 1168.5 3437.82 1168.4 3437.92C1168.29 3438.03 1168.21 3438.15 1168.16 3438.28C1168.1 3438.41 1168.08 3438.55 1168.08 3438.7V3466.65C1168.08 3466.8 1168.1 3466.94 1168.16 3467.07C1168.21 3467.21 1168.29 3467.33 1168.4 3467.43C1168.5 3467.53 1168.62 3467.61 1168.75 3467.66C1168.88 3467.72 1169.03 3467.75 1169.17 3467.75H1181.06C1181.21 3467.75 1181.35 3467.72 1181.48 3467.66C1181.61 3467.61 1181.73 3467.53 1181.84 3467.43C1181.94 3467.33 1182.02 3467.21 1182.07 3467.07C1182.13 3466.94 1182.16 3466.8 1182.16 3466.65V3438.7C1182.16 3438.55 1182.13 3438.41 1182.07 3438.28C1182.02 3438.15 1181.94 3438.03 1181.84 3437.92C1181.73 3437.82 1181.61 3437.74 1181.48 3437.69C1181.35 3437.63 1181.21 3437.6 1181.06 3437.6ZM1179.97 3465.56H1170.26V3439.79H1179.97V3465.56Z" fill="white" fill-opacity="0.5"/>
<path d="M1162.94 3420.26H1151.06C1150.92 3420.26 1150.78 3420.28 1150.64 3420.34C1150.51 3420.39 1150.39 3420.47 1150.29 3420.58C1150.19 3420.68 1150.11 3420.8 1150.05 3420.93C1150 3421.06 1149.97 3421.21 1149.97 3421.35V3431.96C1149.97 3432.1 1150 3432.24 1150.05 3432.38C1150.11 3432.51 1150.19 3432.63 1150.29 3432.73C1150.39 3432.83 1150.51 3432.91 1150.64 3432.97C1150.78 3433.02 1150.92 3433.05 1151.06 3433.05H1162.94C1163.08 3433.05 1163.22 3433.02 1163.36 3432.97C1163.49 3432.91 1163.61 3432.83 1163.71 3432.73C1163.81 3432.63 1163.89 3432.51 1163.95 3432.38C1164 3432.24 1164.03 3432.1 1164.03 3431.96V3421.35C1164.03 3421.21 1164 3421.06 1163.95 3420.93C1163.89 3420.8 1163.81 3420.68 1163.71 3420.58C1163.61 3420.47 1163.49 3420.39 1163.36 3420.34C1163.22 3420.28 1163.08 3420.26 1162.94 3420.26ZM1161.84 3430.86H1152.16V3422.44H1161.84V3430.86Z" fill="white" fill-opacity="0.5"/>
<path d="M1144.83 3420.26H1132.94C1132.79 3420.26 1132.65 3420.28 1132.52 3420.34C1132.39 3420.39 1132.27 3420.47 1132.16 3420.58C1132.06 3420.68 1131.98 3420.8 1131.93 3420.93C1131.87 3421.06 1131.84 3421.21 1131.84 3421.35V3431.96C1131.84 3432.1 1131.87 3432.24 1131.93 3432.38C1131.98 3432.51 1132.06 3432.63 1132.16 3432.73C1132.27 3432.83 1132.39 3432.91 1132.52 3432.97C1132.65 3433.02 1132.79 3433.05 1132.94 3433.05H1144.83C1144.97 3433.05 1145.12 3433.02 1145.25 3432.97C1145.38 3432.91 1145.5 3432.83 1145.6 3432.73C1145.71 3432.63 1145.79 3432.51 1145.84 3432.38C1145.9 3432.24 1145.92 3432.1 1145.92 3431.96V3421.35C1145.92 3421.21 1145.9 3421.06 1145.84 3420.93C1145.79 3420.8 1145.71 3420.68 1145.6 3420.58C1145.5 3420.47 1145.38 3420.39 1145.25 3420.34C1145.12 3420.28 1144.97 3420.26 1144.83 3420.26ZM1143.74 3430.86H1134.03V3422.44H1143.74V3430.86Z" fill="white" fill-opacity="0.5"/>
<path d="M1181.06 3420.26H1169.17C1169.03 3420.26 1168.88 3420.28 1168.75 3420.34C1168.62 3420.39 1168.5 3420.47 1168.4 3420.58C1168.29 3420.68 1168.21 3420.8 1168.16 3420.93C1168.1 3421.06 1168.08 3421.21 1168.08 3421.35V3431.96C1168.08 3432.1 1168.1 3432.24 1168.16 3432.38C1168.21 3432.51 1168.29 3432.63 1168.4 3432.73C1168.5 3432.83 1168.62 3432.91 1168.75 3432.97C1168.88 3433.02 1169.03 3433.05 1169.17 3433.05H1181.06C1181.21 3433.05 1181.35 3433.02 1181.48 3432.97C1181.61 3432.91 1181.73 3432.83 1181.84 3432.73C1181.94 3432.63 1182.02 3432.51 1182.07 3432.38C1182.13 3432.24 1182.16 3432.1 1182.16 3431.96V3421.35C1182.16 3421.21 1182.13 3421.06 1182.07 3420.93C1182.02 3420.8 1181.94 3420.68 1181.84 3420.58C1181.73 3420.47 1181.61 3420.39 1181.48 3420.34C1181.35 3420.28 1181.21 3420.26 1181.06 3420.26ZM1179.97 3430.86H1170.26V3422.44H1179.97V3430.86Z" fill="white" fill-opacity="0.5"/>
<path d="M641.562 2852H588.438C587.153 2852 585.922 2852.51 585.014 2853.42C584.106 2854.33 583.595 2855.56 583.594 2856.84V2927.16C583.595 2928.44 584.106 2929.67 585.014 2930.58C585.922 2931.49 587.153 2932 588.438 2932H641.562C642.847 2932 644.078 2931.49 644.986 2930.58C645.894 2929.67 646.405 2928.44 646.406 2927.16V2856.84C646.404 2855.56 645.893 2854.33 644.985 2853.42C644.077 2852.51 642.846 2852 641.562 2852ZM644.219 2927.15C644.218 2927.86 643.938 2928.53 643.44 2929.03C642.942 2929.53 642.267 2929.81 641.562 2929.81H588.438C587.733 2929.81 587.058 2929.53 586.56 2929.03C586.062 2928.53 585.782 2927.86 585.781 2927.15V2856.84C585.782 2856.14 586.062 2855.46 586.56 2854.97C587.058 2854.47 587.733 2854.19 588.438 2854.19H641.562C642.267 2854.19 642.942 2854.47 643.44 2854.97C643.938 2855.46 644.218 2856.14 644.219 2856.84V2927.15Z" fill="#1E90FF" fill-opacity="0.5"/>
<path d="M639.062 2858.25H590.938C590.794 2858.25 590.652 2858.28 590.519 2858.33C590.386 2858.39 590.265 2858.47 590.164 2858.57C590.062 2858.67 589.982 2858.79 589.927 2858.93C589.872 2859.06 589.844 2859.2 589.844 2859.34V2873.09C589.844 2873.24 589.872 2873.38 589.927 2873.51C589.982 2873.65 590.062 2873.77 590.164 2873.87C590.265 2873.97 590.386 2874.05 590.519 2874.1C590.652 2874.16 590.794 2874.19 590.938 2874.19H639.062C639.206 2874.19 639.348 2874.16 639.481 2874.1C639.614 2874.05 639.735 2873.97 639.836 2873.87C639.938 2873.77 640.018 2873.65 640.073 2873.51C640.128 2873.38 640.156 2873.24 640.156 2873.09V2859.34C640.156 2859.2 640.128 2859.06 640.073 2858.93C640.018 2858.79 639.938 2858.67 639.836 2858.57C639.735 2858.47 639.614 2858.39 639.481 2858.33C639.348 2858.28 639.206 2858.25 639.062 2858.25ZM637.969 2872H592.031V2860.44H637.969V2872Z" fill="#1E90FF" fill-opacity="0.5"/>
<path d="M620.938 2912.95H609.063C608.772 2912.95 608.494 2913.07 608.289 2913.27C608.084 2913.48 607.969 2913.76 607.969 2914.05V2924.65C607.968 2924.8 607.996 2924.94 608.051 2925.07C608.106 2925.21 608.186 2925.33 608.288 2925.43C608.39 2925.53 608.51 2925.61 608.643 2925.67C608.776 2925.72 608.919 2925.75 609.063 2925.75H620.938C621.081 2925.75 621.223 2925.72 621.356 2925.67C621.489 2925.61 621.61 2925.53 621.711 2925.43C621.813 2925.33 621.893 2925.21 621.948 2925.07C622.003 2924.94 622.031 2924.8 622.031 2924.66V2914.05C622.031 2913.76 621.916 2913.48 621.711 2913.27C621.506 2913.07 621.228 2912.95 620.938 2912.95ZM619.843 2923.56H610.156V2915.14H619.843V2923.56Z" fill="#1E90FF" fill-opacity="0.5"/>
<path d="M602.831 2912.95H590.938C590.647 2912.95 590.369 2913.07 590.164 2913.27C589.959 2913.48 589.844 2913.76 589.844 2914.05V2924.65C589.843 2924.8 589.871 2924.94 589.926 2925.07C589.981 2925.21 590.061 2925.33 590.163 2925.43C590.265 2925.53 590.385 2925.61 590.518 2925.67C590.651 2925.72 590.794 2925.75 590.938 2925.75H602.831C602.974 2925.75 603.117 2925.72 603.249 2925.67C603.382 2925.61 603.503 2925.53 603.604 2925.43C603.706 2925.33 603.786 2925.21 603.841 2925.07C603.896 2924.94 603.924 2924.8 603.924 2924.66V2914.05C603.924 2913.76 603.809 2913.48 603.604 2913.27C603.399 2913.07 603.121 2912.95 602.831 2912.95ZM601.737 2923.56H592.031V2915.14H601.737V2923.56Z" fill="#1E90FF" fill-opacity="0.5"/>
<path d="M620.938 2895.6H609.063C608.919 2895.6 608.777 2895.63 608.644 2895.69C608.511 2895.74 608.39 2895.82 608.289 2895.92C608.187 2896.03 608.107 2896.15 608.052 2896.28C607.997 2896.41 607.969 2896.55 607.969 2896.7V2907.31C607.969 2907.45 607.997 2907.59 608.052 2907.72C608.107 2907.86 608.187 2907.98 608.289 2908.08C608.39 2908.18 608.511 2908.26 608.644 2908.32C608.777 2908.37 608.919 2908.4 609.063 2908.4H620.938C621.081 2908.4 621.223 2908.37 621.356 2908.32C621.489 2908.26 621.61 2908.18 621.711 2908.08C621.813 2907.98 621.893 2907.86 621.948 2907.72C622.003 2907.59 622.031 2907.45 622.031 2907.31V2896.7C622.031 2896.55 622.003 2896.41 621.948 2896.28C621.893 2896.15 621.813 2896.03 621.711 2895.92C621.61 2895.82 621.489 2895.74 621.356 2895.69C621.223 2895.63 621.081 2895.6 620.938 2895.6ZM619.844 2906.21H610.156V2897.79H619.844V2906.21Z" fill="#1E90FF" fill-opacity="0.5"/>
<path d="M602.831 2895.6H590.938C590.794 2895.6 590.652 2895.63 590.519 2895.69C590.386 2895.74 590.265 2895.82 590.164 2895.92C590.062 2896.03 589.982 2896.15 589.927 2896.28C589.872 2896.41 589.844 2896.55 589.844 2896.7V2907.31C589.844 2907.45 589.872 2907.59 589.927 2907.72C589.982 2907.86 590.062 2907.98 590.164 2908.08C590.265 2908.18 590.386 2908.26 590.519 2908.32C590.652 2908.37 590.794 2908.4 590.938 2908.4H602.831C602.974 2908.4 603.117 2908.37 603.249 2908.32C603.382 2908.26 603.503 2908.18 603.604 2908.08C603.706 2907.98 603.786 2907.86 603.841 2907.72C603.896 2907.59 603.924 2907.45 603.924 2907.31V2896.7C603.924 2896.55 603.896 2896.41 603.841 2896.28C603.786 2896.15 603.706 2896.03 603.604 2895.92C603.503 2895.82 603.382 2895.74 603.249 2895.69C603.117 2895.63 602.974 2895.6 602.831 2895.6ZM601.737 2906.21H592.031V2897.79H601.737V2906.21Z" fill="#1E90FF" fill-opacity="0.5"/>
<path d="M639.063 2895.6H627.169C627.026 2895.6 626.884 2895.63 626.751 2895.69C626.618 2895.74 626.497 2895.82 626.396 2895.92C626.294 2896.03 626.214 2896.15 626.159 2896.28C626.104 2896.41 626.076 2896.55 626.076 2896.7V2924.65C626.076 2924.8 626.104 2924.94 626.159 2925.07C626.214 2925.21 626.294 2925.33 626.396 2925.43C626.497 2925.53 626.618 2925.61 626.751 2925.66C626.884 2925.72 627.026 2925.75 627.169 2925.75H639.063C639.206 2925.75 639.348 2925.72 639.481 2925.66C639.614 2925.61 639.735 2925.53 639.836 2925.43C639.938 2925.33 640.018 2925.21 640.073 2925.07C640.128 2924.94 640.156 2924.8 640.156 2924.65V2896.7C640.156 2896.55 640.128 2896.41 640.073 2896.28C640.018 2896.15 639.938 2896.03 639.836 2895.92C639.735 2895.82 639.614 2895.74 639.481 2895.69C639.348 2895.63 639.206 2895.6 639.063 2895.6ZM637.969 2923.56H628.263V2897.79H637.969V2923.56Z" fill="#1E90FF" fill-opacity="0.5"/>
<path d="M620.938 2878.26H609.063C608.919 2878.26 608.777 2878.28 608.644 2878.34C608.511 2878.39 608.39 2878.47 608.289 2878.58C608.187 2878.68 608.107 2878.8 608.052 2878.93C607.997 2879.06 607.969 2879.21 607.969 2879.35V2889.96C607.969 2890.1 607.997 2890.24 608.052 2890.38C608.107 2890.51 608.187 2890.63 608.289 2890.73C608.39 2890.83 608.511 2890.91 608.644 2890.97C608.777 2891.02 608.919 2891.05 609.063 2891.05H620.938C621.081 2891.05 621.223 2891.02 621.356 2890.97C621.489 2890.91 621.61 2890.83 621.711 2890.73C621.813 2890.63 621.893 2890.51 621.948 2890.38C622.003 2890.24 622.031 2890.1 622.031 2889.96V2879.35C622.031 2879.21 622.003 2879.06 621.948 2878.93C621.893 2878.8 621.813 2878.68 621.711 2878.58C621.61 2878.47 621.489 2878.39 621.356 2878.34C621.223 2878.28 621.081 2878.26 620.938 2878.26ZM619.843 2888.86H610.156V2880.44H619.843V2888.86Z" fill="#1E90FF" fill-opacity="0.5"/>
<path d="M602.831 2878.26H590.938C590.794 2878.26 590.652 2878.28 590.519 2878.34C590.386 2878.39 590.265 2878.47 590.164 2878.58C590.062 2878.68 589.982 2878.8 589.927 2878.93C589.872 2879.06 589.844 2879.21 589.844 2879.35V2889.96C589.844 2890.1 589.872 2890.24 589.927 2890.38C589.982 2890.51 590.062 2890.63 590.164 2890.73C590.265 2890.83 590.386 2890.91 590.519 2890.97C590.652 2891.02 590.794 2891.05 590.938 2891.05H602.831C602.974 2891.05 603.117 2891.02 603.249 2890.97C603.382 2890.91 603.503 2890.83 603.604 2890.73C603.706 2890.63 603.786 2890.51 603.841 2890.38C603.896 2890.24 603.924 2890.1 603.924 2889.96V2879.35C603.924 2879.21 603.896 2879.06 603.841 2878.93C603.786 2878.8 603.706 2878.68 603.604 2878.58C603.503 2878.47 603.382 2878.39 603.249 2878.34C603.117 2878.28 602.974 2878.26 602.831 2878.26ZM601.737 2888.86H592.031V2880.44H601.737V2888.86Z" fill="#1E90FF" fill-opacity="0.5"/>
<path d="M639.063 2878.26H627.169C627.026 2878.26 626.884 2878.28 626.751 2878.34C626.618 2878.39 626.497 2878.47 626.396 2878.58C626.294 2878.68 626.214 2878.8 626.159 2878.93C626.104 2879.06 626.076 2879.21 626.076 2879.35V2889.96C626.076 2890.1 626.104 2890.24 626.159 2890.38C626.214 2890.51 626.294 2890.63 626.396 2890.73C626.497 2890.83 626.618 2890.91 626.751 2890.97C626.884 2891.02 627.026 2891.05 627.169 2891.05H639.063C639.206 2891.05 639.348 2891.02 639.481 2890.97C639.614 2890.91 639.735 2890.83 639.836 2890.73C639.938 2890.63 640.018 2890.51 640.073 2890.38C640.128 2890.24 640.156 2890.1 640.156 2889.96V2879.35C640.156 2879.21 640.128 2879.06 640.073 2878.93C640.018 2878.8 639.938 2878.68 639.836 2878.58C639.735 2878.47 639.614 2878.39 639.481 2878.34C639.348 2878.28 639.206 2878.26 639.063 2878.26ZM637.969 2888.86H628.263V2880.44H637.969V2888.86Z" fill="#1E90FF" fill-opacity="0.5"/>
<path d="M697.284 442.716C689.729 435.161 679.684 431 669 431C658.316 431 648.271 435.161 640.716 442.716C633.161 450.271 629 460.316 629 471C629 481.684 633.161 491.729 640.716 499.284C648.271 506.839 658.316 511 669 511C679.684 511 689.729 506.839 697.284 499.284C704.839 491.729 709 481.684 709 471C709 460.316 704.839 450.271 697.284 442.716ZM693.97 495.97C687.3 502.639 678.432 506.312 669 506.312C659.568 506.312 650.7 502.639 644.03 495.97C637.361 489.3 633.688 480.432 633.688 471C633.688 461.568 637.361 452.7 644.03 446.03C650.7 439.361 659.568 435.688 669 435.688C678.432 435.688 687.3 439.361 693.97 446.03C700.639 452.7 704.312 461.568 704.312 471C704.312 480.432 700.639 489.3 693.97 495.97Z" fill="#1E90FF" fill-opacity="0.5"/>
<path d="M678.885 461.115V447.316H659.115V461.115H645.316V480.885H659.115V494.684H678.885V480.885H692.684V461.115H678.885ZM687.996 476.197H674.197V489.996H663.803V476.197H650.004V465.803H663.803V452.004H674.197V465.803H687.996V476.197Z" fill="#1E90FF" fill-opacity="0.5"/>
<path d="M959.284 11.7156C951.729 4.16078 941.684 0 931 0C920.316 0 910.271 4.16078 902.716 11.7156C895.161 19.2708 891 29.3156 891 40C891 50.6844 895.161 60.7292 902.716 68.2844C910.271 75.8392 920.316 80 931 80C941.684 80 951.729 75.8392 959.284 68.2844C966.839 60.7292 971 50.6844 971 40C971 29.3156 966.839 19.2708 959.284 11.7156ZM955.97 64.9697C949.3 71.6394 940.432 75.3125 931 75.3125C921.568 75.3125 912.7 71.6394 906.03 64.9697C899.361 58.3 895.688 49.4323 895.688 40C895.688 30.5677 899.361 21.7 906.03 15.0303C912.7 8.36063 921.568 4.6875 931 4.6875C940.432 4.6875 949.3 8.36063 955.97 15.0303C962.639 21.7 966.312 30.5677 966.312 40C966.312 49.4323 962.639 58.3 955.97 64.9697Z" fill="#1E90FF" fill-opacity="0.5"/>
<path d="M940.885 30.1153V16.3161H921.115V30.1153H907.316V49.8845H921.115V63.6837H940.885V49.8845H954.684V30.1153H940.885ZM949.996 45.197H936.197V58.9962H925.803V45.197H912.004V34.8028H925.803V21.0036H936.197V34.8028H949.996V45.197Z" fill="#1E90FF" fill-opacity="0.5"/>
<path d="M970.792 927.963C972.903 927.935 974.613 926.214 974.613 924.097V913.774C974.613 911.64 972.876 909.903 970.742 909.903H969.452V903.452C969.452 901.317 967.715 899.581 965.581 899.581C963.446 899.581 961.71 901.317 961.71 903.452V909.903H960.419C958.285 909.903 956.548 911.64 956.548 913.774V924.097C956.548 926.206 958.246 927.921 960.347 927.96L951.881 952.484H951.334L946.226 943.637V897H944.935C922.88 897 904.935 914.945 904.935 937C904.935 959.057 922.88 977 944.935 977H946.226V960.226H946.863L950.094 965.822L958.285 972.267L956.799 961.951L955.59 959.857C956.913 959.241 957.839 957.908 957.839 956.355C957.839 956.142 957.809 955.935 957.775 955.732L965.392 934.457L974.666 965.754L974.732 965.975L981.064 974.419V963.916L970.792 927.963ZM964.29 903.452C964.29 902.741 964.87 902.161 965.581 902.161C966.292 902.161 966.871 902.741 966.871 903.452V909.903H964.29V903.452ZM959.129 924.097V913.774C959.129 913.063 959.708 912.484 960.419 912.484H961.71H963H968.161H969.452H970.742C971.453 912.484 972.032 913.063 972.032 913.774V924.097C972.032 924.808 971.453 925.387 970.742 925.387H970.559C969.982 923.168 967.978 921.516 965.581 921.516C963.183 921.516 961.179 923.168 960.603 925.387H960.419C959.708 925.387 959.129 924.808 959.129 924.097ZM945.408 947.382L948.353 952.484H945.374L943.173 948.672L945.408 947.382ZM944.117 945.147L941.883 946.437L941.237 945.319C941.066 945.021 941.019 944.672 941.108 944.339C941.197 944.006 941.41 943.729 941.71 943.557C942.008 943.383 942.357 943.342 942.688 943.427C943.021 943.516 943.299 943.729 943.471 944.028L943.645 944.329V944.742H943.884L944.117 945.147ZM943.645 974.397C940.066 974.275 936.617 973.64 933.359 972.577L935.556 966.541L933.132 965.658L930.934 971.695C927.668 970.373 924.631 968.605 921.897 966.463L926.018 961.551L924.041 959.893L919.926 964.797C917.334 962.463 915.071 959.774 913.212 956.806L918.763 953.601L917.472 951.366L911.911 954.577C910.284 951.532 909.071 948.235 908.334 944.763L914.663 943.648L914.215 941.107L907.888 942.222C907.646 940.515 907.516 938.773 907.516 937C907.516 935.227 907.646 933.485 907.886 931.778L914.214 932.894L914.663 930.352L908.334 929.236C909.07 925.765 910.283 922.468 911.91 919.423L917.471 922.634L918.761 920.399L913.212 917.194C915.072 914.225 917.335 911.537 919.926 909.203L924.041 914.106L926.018 912.448L921.897 907.537C924.63 905.395 927.668 903.627 930.934 902.305L933.132 908.341L935.556 907.458L933.359 901.422C936.617 900.359 940.066 899.724 943.645 899.603V941.044C943.548 941.009 943.457 940.963 943.356 940.935C942.359 940.667 941.313 940.805 940.419 941.323C939.524 941.839 938.883 942.674 938.615 943.672C938.347 944.671 938.485 945.715 939.001 946.609L942.503 952.675C940.929 953.165 939.774 954.619 939.774 956.355C939.774 958.489 941.511 960.226 943.645 960.226V974.397ZM949.844 960.226H952.823L953.15 960.791L950.915 962.081L949.844 960.226ZM952.292 964.266L954.353 963.075L954.812 966.248L952.292 964.266ZM953.968 957.645H943.645C942.934 957.645 942.355 957.067 942.355 956.355C942.355 955.643 942.934 955.065 943.645 955.065H953.968C954.679 955.065 955.258 955.643 955.258 956.355C955.258 957.067 954.679 957.645 953.968 957.645ZM955.988 953.07C955.568 952.809 955.095 952.63 954.59 952.547L962.188 930.537C962.639 930.933 963.15 931.257 963.719 931.479L955.988 953.07ZM963 926.677C963 925.254 964.157 924.097 965.581 924.097C967.004 924.097 968.161 925.254 968.161 926.677C968.161 928.101 967.004 929.258 965.581 929.258C964.157 929.258 963 928.101 963 926.677ZM978.484 966.677L977.075 964.799L967.223 931.546C967.832 931.339 968.386 931.026 968.87 930.622L978.484 964.277V966.677Z" fill="#1E90FF" fill-opacity="0.5"/>
<path d="M919.129 937C919.129 946.978 924.992 956.157 934.068 960.383L935.903 961.237V922.806H933.323V957.088C926.206 952.963 921.71 945.286 921.71 937C921.71 928.712 926.206 921.036 933.323 916.912V920.226H935.903V912.761L934.068 913.615C924.992 917.841 919.129 927.021 919.129 937Z" fill="#1E90FF" fill-opacity="0.5"/>
<path d="M243.792 2380.96C245.903 2380.94 247.613 2379.21 247.613 2377.1V2366.77C247.613 2364.64 245.876 2362.9 243.742 2362.9H242.452V2356.45C242.452 2354.32 240.715 2352.58 238.581 2352.58C236.447 2352.58 234.71 2354.32 234.71 2356.45V2362.9H233.419C231.285 2362.9 229.548 2364.64 229.548 2366.77V2377.1C229.548 2379.21 231.247 2380.92 233.347 2380.96L224.881 2405.48H224.334L219.226 2396.64V2350H217.936C195.88 2350 177.936 2367.94 177.936 2390C177.936 2412.06 195.88 2430 217.936 2430H219.226V2413.23H219.863L223.094 2418.82L231.285 2425.27L229.799 2414.95L228.59 2412.86C229.914 2412.24 230.839 2410.91 230.839 2409.35C230.839 2409.14 230.809 2408.94 230.776 2408.73L238.392 2387.46L247.666 2418.75L247.732 2418.98L254.065 2427.42V2416.92L243.792 2380.96ZM237.29 2356.45C237.29 2355.74 237.87 2355.16 238.581 2355.16C239.292 2355.16 239.871 2355.74 239.871 2356.45V2362.9H237.29V2356.45ZM232.129 2377.1V2366.77C232.129 2366.06 232.708 2365.48 233.419 2365.48H234.71H236H241.161H242.452H243.742C244.453 2365.48 245.032 2366.06 245.032 2366.77V2377.1C245.032 2377.81 244.453 2378.39 243.742 2378.39H243.559C242.982 2376.17 240.978 2374.52 238.581 2374.52C236.183 2374.52 234.179 2376.17 233.603 2378.39H233.419C232.708 2378.39 232.129 2377.81 232.129 2377.1ZM218.408 2400.38L221.354 2405.48H218.374L216.173 2401.67L218.408 2400.38ZM217.117 2398.15L214.883 2399.44L214.237 2398.32C214.066 2398.02 214.019 2397.67 214.108 2397.34C214.197 2397.01 214.41 2396.73 214.71 2396.56C215.008 2396.38 215.357 2396.34 215.688 2396.43C216.021 2396.52 216.299 2396.73 216.471 2397.03L216.645 2397.33V2397.74H216.884L217.117 2398.15ZM216.645 2427.4C213.066 2427.27 209.617 2426.64 206.359 2425.58L208.556 2419.54L206.132 2418.66L203.934 2424.7C200.668 2423.37 197.631 2421.61 194.897 2419.46L199.018 2414.55L197.041 2412.89L192.927 2417.8C190.334 2415.46 188.071 2412.77 186.212 2409.81L191.763 2406.6L190.472 2404.37L184.911 2407.58C183.284 2404.53 182.071 2401.23 181.334 2397.76L187.663 2396.65L187.216 2394.11L180.888 2395.22C180.647 2393.51 180.516 2391.77 180.516 2390C180.516 2388.23 180.647 2386.49 180.887 2384.78L187.214 2385.89L187.663 2383.35L181.334 2382.24C182.07 2378.77 183.283 2375.47 184.91 2372.42L190.471 2375.63L191.761 2373.4L186.212 2370.19C188.072 2367.22 190.336 2364.54 192.927 2362.2L197.041 2367.11L199.018 2365.45L194.897 2360.54C197.63 2358.39 200.668 2356.63 203.934 2355.3L206.132 2361.34L208.556 2360.46L206.359 2354.42C209.617 2353.36 213.066 2352.72 216.645 2352.6V2394.04C216.548 2394.01 216.457 2393.96 216.356 2393.94C215.359 2393.67 214.314 2393.81 213.419 2394.32C212.524 2394.84 211.883 2395.67 211.616 2396.67C211.347 2397.67 211.485 2398.71 212.001 2399.61L215.503 2405.67C213.929 2406.17 212.774 2407.62 212.774 2409.35C212.774 2411.49 214.511 2413.23 216.645 2413.23V2427.4ZM222.844 2413.23H225.823L226.15 2413.79L223.915 2415.08L222.844 2413.23ZM225.292 2417.27L227.354 2416.07L227.812 2419.25L225.292 2417.27ZM226.968 2410.65H216.645C215.934 2410.65 215.355 2410.07 215.355 2409.35C215.355 2408.64 215.934 2408.06 216.645 2408.06H226.968C227.679 2408.06 228.258 2408.64 228.258 2409.35C228.258 2410.07 227.679 2410.65 226.968 2410.65ZM228.988 2406.07C228.568 2405.81 228.096 2405.63 227.59 2405.55L235.188 2383.54C235.639 2383.93 236.15 2384.26 236.719 2384.48L228.988 2406.07ZM236 2379.68C236 2378.25 237.157 2377.1 238.581 2377.1C240.004 2377.1 241.161 2378.25 241.161 2379.68C241.161 2381.1 240.004 2382.26 238.581 2382.26C237.157 2382.26 236 2381.1 236 2379.68ZM251.484 2419.68L250.075 2417.8L240.223 2384.55C240.832 2384.34 241.386 2384.03 241.87 2383.62L251.484 2417.28V2419.68Z" fill="#1E90FF" fill-opacity="0.5"/>
<path d="M192.129 2390C192.129 2399.98 197.992 2409.16 207.069 2413.38L208.903 2414.24V2375.81H206.323V2410.09C199.207 2405.96 194.71 2398.29 194.71 2390C194.71 2381.71 199.207 2374.04 206.323 2369.91V2373.23H208.903V2365.76L207.069 2366.62C197.992 2370.84 192.129 2380.02 192.129 2390Z" fill="#1E90FF" fill-opacity="0.5"/>
<path d="M94.7923 384.963C96.9033 384.935 98.613 383.214 98.613 381.097V370.774C98.613 368.64 96.8762 366.903 94.742 366.903H93.4517V360.452C93.4517 358.317 91.7149 356.581 89.5807 356.581C87.4465 356.581 85.7097 358.317 85.7097 360.452V366.903H84.4194C82.2852 366.903 80.5484 368.64 80.5484 370.774V381.097C80.5484 383.206 82.2465 384.921 84.3472 384.96L75.8814 409.484H75.3343L70.2259 400.637V354H68.9355C46.8801 354 28.9355 371.945 28.9355 394C28.9355 416.057 46.8801 434 68.9355 434H70.2259V417.226H70.8633L74.0943 422.822L82.2852 429.267L80.7988 418.951L79.5897 416.857C80.9136 416.241 81.8388 414.908 81.8388 413.355C81.8388 413.142 81.8091 412.935 81.7755 412.732L89.3923 391.457L98.6659 422.754L98.7317 422.975L105.065 431.419V420.916L94.7923 384.963ZM88.2904 360.452C88.2904 359.741 88.8697 359.161 89.5807 359.161C90.2917 359.161 90.871 359.741 90.871 360.452V366.903H88.2904V360.452ZM83.1291 381.097V370.774C83.1291 370.063 83.7085 369.484 84.4194 369.484H85.7097H87.0001H92.1614H93.4517H94.742C95.453 369.484 96.0323 370.063 96.0323 370.774V381.097C96.0323 381.808 95.453 382.387 94.742 382.387H94.5588C93.982 380.168 91.9781 378.516 89.5807 378.516C87.1833 378.516 85.1794 380.168 84.6026 382.387H84.4194C83.7085 382.387 83.1291 381.808 83.1291 381.097ZM69.4078 404.382L72.3536 409.484H69.3743L67.173 405.672L69.4078 404.382ZM68.1175 402.147L65.8826 403.437L65.2375 402.319C65.0659 402.021 65.0194 401.672 65.1084 401.339C65.1975 401.006 65.4104 400.729 65.7097 400.557C66.0078 400.383 66.3575 400.342 66.6878 400.427C67.0207 400.516 67.2994 400.729 67.471 401.028L67.6452 401.329V401.742H67.8839L68.1175 402.147ZM67.6452 431.397C64.0659 431.275 60.6168 430.64 57.3588 429.577L59.5562 423.541L57.1317 422.658L54.9343 428.695C51.6684 427.373 48.631 425.605 45.8968 423.463L50.0181 418.551L48.0414 416.893L43.9265 421.797C41.3343 419.463 39.071 416.774 37.2117 413.806L42.7626 410.601L41.4723 408.366L35.911 411.577C34.2839 408.532 33.071 405.235 32.3343 401.763L38.6633 400.648L38.2155 398.107L31.8878 399.222C31.6465 397.515 31.5162 395.773 31.5162 394C31.5162 392.227 31.6465 390.485 31.8865 388.778L38.2143 389.894L38.6633 387.352L32.3343 386.236C33.0697 382.765 34.2826 379.468 35.9097 376.423L41.471 379.634L42.7614 377.399L37.2117 374.194C39.0723 371.225 41.3355 368.537 43.9265 366.203L48.0414 371.106L50.0181 369.448L45.8968 364.537C48.6297 362.395 51.6684 360.627 54.9343 359.305L57.1317 365.341L59.5562 364.458L57.3588 358.422C60.6168 357.359 64.0659 356.724 67.6452 356.603V398.044C67.5485 398.009 67.4568 397.963 67.3562 397.935C66.3588 397.667 65.3136 397.805 64.4194 398.323C63.5239 398.839 62.8826 399.674 62.6155 400.672C62.3472 401.671 62.4852 402.715 63.0014 403.609L66.5033 409.675C64.9291 410.165 63.7743 411.619 63.7743 413.355C63.7743 415.489 65.511 417.226 67.6452 417.226V431.397ZM73.8439 417.226H76.8233L77.1497 417.791L74.9149 419.081L73.8439 417.226ZM76.2917 421.266L78.3536 420.075L78.8117 423.248L76.2917 421.266ZM77.9678 414.645H67.6452C66.9343 414.645 66.3549 414.067 66.3549 413.355C66.3549 412.643 66.9343 412.065 67.6452 412.065H77.9678C78.6788 412.065 79.2581 412.643 79.2581 413.355C79.2581 414.067 78.6788 414.645 77.9678 414.645ZM79.9885 410.07C79.5678 409.809 79.0955 409.63 78.5897 409.547L86.1884 387.537C86.6388 387.933 87.1497 388.257 87.7188 388.479L79.9885 410.07ZM87.0001 383.677C87.0001 382.254 88.1575 381.097 89.5807 381.097C91.0039 381.097 92.1614 382.254 92.1614 383.677C92.1614 385.101 91.0039 386.258 89.5807 386.258C88.1575 386.258 87.0001 385.101 87.0001 383.677ZM102.484 423.677L101.075 421.799L91.2233 388.546C91.8323 388.339 92.3859 388.026 92.8697 387.622L102.484 421.277V423.677Z" fill="#1E90FF" fill-opacity="0.5"/>
<path d="M43.1292 394C43.1292 403.978 48.9924 413.157 58.0685 417.383L59.9033 418.237V379.806H57.3227V414.088C50.2066 409.963 45.7098 402.286 45.7098 394C45.7098 385.712 50.2066 378.036 57.3227 373.912V377.226H59.9033V369.761L58.0685 370.616C48.9924 374.841 43.1292 384.021 43.1292 394Z" fill="#1E90FF" fill-opacity="0.5"/>
<defs>
<clipPath id="clip0">
<rect width="80" height="80" fill="white" transform="translate(1172 1455)"/>
</clipPath>
<clipPath id="clip1">
<rect width="80" height="80" fill="white" transform="translate(1127 2390)"/>
</clipPath>
</defs>
</svg>
