<svg width="298" height="298" viewBox="0 0 298 298" fill="none" xmlns="http://www.w3.org/2000/svg">
<circle cx="149" cy="149" r="149" fill="#1E90FF"/>
<path d="M175.367 208.633H122.633C120.206 208.633 118.238 210.6 118.238 213.027C118.238 215.454 120.206 217.422 122.633 217.422H175.367C177.794 217.422 179.762 215.454 179.762 213.027C179.762 210.6 177.794 208.633 175.367 208.633Z" fill="white"/>
<path d="M175.367 173.477H122.633C120.206 173.477 118.238 175.444 118.238 177.871C118.238 180.298 120.206 182.266 122.633 182.266H175.367C177.794 182.266 179.762 180.298 179.762 177.871C179.762 175.444 177.794 173.477 175.367 173.477Z" fill="white"/>
<path d="M175.367 191.055H122.633C120.206 191.055 118.238 193.022 118.238 195.449C118.238 197.876 120.206 199.844 122.633 199.844H175.367C177.794 199.844 179.762 197.876 179.762 195.449C179.762 193.022 177.794 191.055 175.367 191.055Z" fill="white"/>
<path d="M170.973 85H109.449V123.086H170.973V85Z" fill="white"/>
<path d="M222.713 109.725L199.275 86.2873C198.451 85.4632 197.333 85 196.168 85H179.762V127.48C179.762 129.907 177.794 131.875 175.367 131.875H105.055C102.628 131.875 100.66 129.907 100.66 127.48V85H78.3945C75.9676 85 74 86.9676 74 89.3945V230.605C74 233.032 75.9676 235 78.3945 235C79.7554 235 217.778 235 219.605 235C222.032 235 224 233.032 224 230.605V112.832C224 111.667 223.537 110.549 222.713 109.725ZM188.551 226.211H109.449V164.688H188.551V226.211Z" fill="white"/>
</svg>
