<svg width="511" height="28" viewBox="0 0 511 28" fill="none" xmlns="http://www.w3.org/2000/svg">
<path d="M14 0L17.1432 9.67376H27.3148L19.0858 15.6525L22.229 25.3262L14 19.3475L5.77101 25.3262L8.9142 15.6525L0.685208 9.67376H10.8568L14 0Z" fill="#C4C4C4"/>
<path d="M62 0L65.1432 9.67376H75.3148L67.0858 15.6525L70.229 25.3262L62 19.3475L53.771 25.3262L56.9142 15.6525L48.6852 9.67376H58.8568L62 0Z" fill="#C4C4C4"/>
<path d="M113 0L116.143 9.67376H126.315L118.086 15.6525L121.229 25.3262L113 19.3475L104.771 25.3262L107.914 15.6525L99.6852 9.67376H109.857L113 0Z" fill="#C4C4C4"/>
<path d="M161 0L164.143 9.67376H174.315L166.086 15.6525L169.229 25.3262L161 19.3475L152.771 25.3262L155.914 15.6525L147.685 9.67376H157.857L161 0Z" fill="#C4C4C4"/>
<path d="M209 0L212.143 9.67376H222.315L214.086 15.6525L217.229 25.3262L209 19.3475L200.771 25.3262L203.914 15.6525L195.685 9.67376H205.857L209 0Z" fill="#C4C4C4"/>
<path d="M257 0L260.143 9.67376H270.315L262.086 15.6525L265.229 25.3262L257 19.3475L248.771 25.3262L251.914 15.6525L243.685 9.67376H253.857L257 0Z" fill="#C4C4C4"/>
<path d="M305 0L308.143 9.67376H318.315L310.086 15.6525L313.229 25.3262L305 19.3475L296.771 25.3262L299.914 15.6525L291.685 9.67376H301.857L305 0Z" fill="#C4C4C4"/>
<path d="M353 0L356.143 9.67376H366.315L358.086 15.6525L361.229 25.3262L353 19.3475L344.771 25.3262L347.914 15.6525L339.685 9.67376H349.857L353 0Z" fill="#C4C4C4"/>
<path d="M401 0L404.143 9.67376H414.315L406.086 15.6525L409.229 25.3262L401 19.3475L392.771 25.3262L395.914 15.6525L387.685 9.67376H397.857L401 0Z" fill="#C4C4C4"/>
<path d="M449 0L452.143 9.67376H462.315L454.086 15.6525L457.229 25.3262L449 19.3475L440.771 25.3262L443.914 15.6525L435.685 9.67376H445.857L449 0Z" fill="#C4C4C4"/>
<path d="M497 0L500.143 9.67376H510.315L502.086 15.6525L505.229 25.3262L497 19.3475L488.771 25.3262L491.914 15.6525L483.685 9.67376H493.857L497 0Z" fill="#C4C4C4"/>
</svg>
