<svg width="298" height="298" viewBox="0 0 298 298" fill="none" xmlns="http://www.w3.org/2000/svg">
<circle cx="149" cy="149" r="149" fill="#1E90FF"/>
<path d="M182.523 195.25C182.666 194.678 182.743 194.09 182.75 193.5V93.5C182.75 89.3578 179.392 86 175.25 86H120.25C116.108 86 112.75 89.3578 112.75 93.5V193.5C112.75 197.642 116.108 201 120.25 201H140.25V207.465L138.268 205.482C135.181 202.532 130.319 202.532 127.233 205.482C124.191 208.532 124.191 213.468 127.233 216.518L145.983 235.268C146.451 235.736 147.087 236 147.75 236H175.25C175.913 236 176.549 235.736 177.018 235.268C182.306 230.008 185.271 222.851 185.25 215.393V201C185.246 198.772 184.246 196.662 182.523 195.25ZM117.75 93.5C117.75 92.1194 118.869 91 120.25 91H175.25C176.631 91 177.75 92.1194 177.75 93.5V96H117.75V93.5ZM117.75 101H177.75V186H155.25V181H162.75C166.892 181 170.25 177.642 170.25 173.5C170.25 169.358 166.892 166 162.75 166H132.75C128.608 166 125.25 169.358 125.25 173.5C125.25 177.642 128.608 181 132.75 181H140.25V186H117.75V101ZM154.79 171H162.75C164.131 171 165.25 172.119 165.25 173.5C165.25 174.881 164.131 176 162.75 176H155.25V173.5C155.242 172.646 155.086 171.801 154.79 171ZM155.25 191H177.75V193.5C175.904 193.496 174.122 194.177 172.75 195.412C169.906 192.859 165.594 192.859 162.75 195.412C160.683 193.638 157.838 193.074 155.25 193.925V191ZM140.71 171C140.414 171.801 140.258 172.646 140.25 173.5V176H132.75C131.369 176 130.25 174.881 130.25 173.5C130.25 172.119 131.369 171 132.75 171H140.71ZM120.25 196C118.869 196 117.75 194.881 117.75 193.5V191H140.25V196H120.25ZM180.25 215.393C180.267 221.173 178.101 226.747 174.185 231H148.785L130.768 212.982C129.673 211.887 129.673 210.113 130.768 209.018C131.863 207.923 133.638 207.923 134.733 209.018L140.983 215.268C141.959 216.244 143.542 216.243 144.518 215.267C144.987 214.798 145.25 214.163 145.25 213.5V173.5C145.25 172.119 146.369 171 147.75 171C149.131 171 150.25 172.119 150.25 173.5V206C150.25 207.381 151.369 208.5 152.75 208.5C154.131 208.5 155.25 207.381 155.25 206V201C155.25 199.619 156.369 198.5 157.75 198.5C159.131 198.5 160.25 199.619 160.25 201V206C160.25 207.381 161.369 208.5 162.75 208.5C164.131 208.5 165.25 207.381 165.25 206V201C165.25 199.619 166.369 198.5 167.75 198.5C169.131 198.5 170.25 199.619 170.25 201V206C170.25 207.381 171.369 208.5 172.75 208.5C174.131 208.5 175.25 207.381 175.25 206V201C175.25 199.619 176.369 198.5 177.75 198.5C179.131 198.5 180.25 199.619 180.25 201V215.393Z" fill="white"/>
<path d="M162.75 106H132.75C131.369 106 130.25 107.119 130.25 108.5V138.5C130.25 139.881 131.369 141 132.75 141H162.75C164.131 141 165.25 139.881 165.25 138.5V108.5C165.25 107.119 164.131 106 162.75 106ZM135.5 136H135.25V111H147.147C144.834 111.139 142.559 112.076 140.77 113.82C136.817 117.677 136.737 124.008 140.594 127.961C140.652 128.021 140.711 128.079 140.77 128.137C138.054 129.969 136.162 132.791 135.5 136ZM147.75 116C150.512 116 152.75 118.238 152.75 121C152.75 123.762 150.512 126 147.75 126C144.988 126 142.75 123.762 142.75 121C142.75 118.238 144.988 116 147.75 116ZM140.677 136C142.056 132.094 146.34 130.045 150.246 131.423C152.385 132.178 154.067 133.861 154.822 136H140.677ZM160.25 136H160C159.339 132.792 157.449 129.97 154.735 128.137C158.688 124.281 158.768 117.95 154.911 113.997C153.112 112.152 150.774 111.152 148.39 111H160.25V136Z" fill="white"/>
<path d="M162.75 146H132.75C128.608 146 125.25 149.358 125.25 153.5C125.25 157.642 128.608 161 132.75 161H162.75C166.892 161 170.25 157.642 170.25 153.5C170.25 149.358 166.892 146 162.75 146ZM162.75 156H132.75C131.369 156 130.25 154.881 130.25 153.5C130.25 152.119 131.369 151 132.75 151H162.75C164.131 151 165.25 152.119 165.25 153.5C165.25 154.881 164.131 156 162.75 156Z" fill="white"/>
</svg>
