<svg width="70" height="70" viewBox="0 0 70 70" fill="none" xmlns="http://www.w3.org/2000/svg">
<circle cx="35" cy="35" r="35" fill="#1E90FF"/>
<path d="M35 28.9609C37.7506 28.9609 39.9805 26.7311 39.9805 23.9805C39.9805 21.2298 37.7506 19 35 19C32.2494 19 30.0195 21.2298 30.0195 23.9805C30.0195 26.7311 32.2494 28.9609 35 28.9609Z" fill="white"/>
<path d="M38.6598 29.6357C37.6053 30.3204 36.3484 30.7188 35.0001 30.7188C33.6518 30.7188 32.3949 30.3204 31.3404 29.6357C30.1747 30.0811 29.0938 30.7384 28.1541 31.5819L35.0001 34.1492L41.8461 31.5819C40.9063 30.7384 39.8255 30.0811 38.6598 29.6357Z" fill="white"/>
<path d="M45.5469 37.1641H44.9609C44.4755 37.1641 44.082 37.5576 44.082 38.043V40.3867C44.082 40.8721 44.4755 41.2656 44.9609 41.2656H45.5469C46.6795 41.2656 47.5977 40.3475 47.5977 39.2148C47.5977 38.0822 46.6795 37.1641 45.5469 37.1641Z" fill="white"/>
<path d="M25.1244 32.7271C24.8874 32.8913 24.7461 33.1612 24.7461 33.4495V35.4062H25.0391C26.4929 35.4062 27.6758 36.589 27.6758 38.0429V40.3867C27.6758 41.8405 26.4929 43.0234 25.0391 43.0234H24.7461V44.8752C24.7461 45.2416 24.9734 45.5696 25.3164 45.6982L34.1211 48.9999V35.6968L25.9336 32.6265C25.6637 32.5252 25.3613 32.5628 25.1244 32.7271Z" fill="white"/>
<path d="M42.3242 40.3867V38.0429C42.3242 36.589 43.5071 35.4062 44.9609 35.4062H45.2539V33.4495C45.2539 33.1612 45.1126 32.8913 44.8756 32.7271C44.6387 32.5628 44.3362 32.5252 44.0664 32.6265L35.8789 35.6968V48.9999L44.6836 45.6982C45.0266 45.5696 45.2539 45.2416 45.2539 44.8752V43.0234H44.9609C43.5071 43.0234 42.3242 41.8405 42.3242 40.3867Z" fill="white"/>
<path d="M25.918 40.3867V38.043C25.918 37.5576 25.5245 37.1641 25.0391 37.1641H24.4531C23.3205 37.1641 22.4023 38.0822 22.4023 39.2148C22.4023 40.3475 23.3205 41.2656 24.4531 41.2656H25.0391C25.5245 41.2656 25.918 40.8721 25.918 40.3867Z" fill="white"/>
</svg>
