<svg width="56" height="287" viewBox="0 0 56 287" fill="none" xmlns="http://www.w3.org/2000/svg">
<path d="M30 71L33.1432 80.6738H43.3148L35.0858 86.6525L38.229 96.3262L30 90.3475L21.771 96.3262L24.9142 86.6525L16.6852 80.6738H26.8568L30 71Z" fill="#C4C4C4"/>
<path d="M30 118L33.1432 127.674H43.3148L35.0858 133.652L38.229 143.326L30 137.348L21.771 143.326L24.9142 133.652L16.6852 127.674H26.8568L30 118Z" fill="#C4C4C4"/>
<path d="M30 165L33.1432 174.674H43.3148L35.0858 180.652L38.229 190.326L30 184.348L21.771 190.326L24.9142 180.652L16.6852 174.674H26.8568L30 165Z" fill="#C4C4C4"/>
<path d="M30 212L33.1432 221.674H43.3148L35.0858 227.652L38.229 237.326L30 231.348L21.771 237.326L24.9142 227.652L16.6852 221.674H26.8568L30 212Z" fill="#C4C4C4"/>
<path d="M30 259L33.1432 268.674H43.3148L35.0858 274.652L38.229 284.326L30 278.348L21.771 284.326L24.9142 274.652L16.6852 268.674H26.8568L30 259Z" fill="#C4C4C4"/>
<path d="M12.2695 21.2422C12.2695 22.7891 11.7109 24.0078 10.5938 24.8984C9.48438 25.7891 7.9375 26.2344 5.95312 26.2344C4.125 26.2344 2.50781 25.8906 1.10156 25.2031V21.8281C2.25781 22.3438 3.23438 22.707 4.03125 22.918C4.83594 23.1289 5.57031 23.2344 6.23438 23.2344C7.03125 23.2344 7.64062 23.082 8.0625 22.7773C8.49219 22.4727 8.70703 22.0195 8.70703 21.418C8.70703 21.082 8.61328 20.7852 8.42578 20.5273C8.23828 20.2617 7.96094 20.0078 7.59375 19.7656C7.23438 19.5234 6.49609 19.1367 5.37891 18.6055C4.33203 18.1133 3.54688 17.6406 3.02344 17.1875C2.5 16.7344 2.08203 16.207 1.76953 15.6055C1.45703 15.0039 1.30078 14.3008 1.30078 13.4961C1.30078 11.9805 1.8125 10.7891 2.83594 9.92188C3.86719 9.05469 5.28906 8.62109 7.10156 8.62109C7.99219 8.62109 8.83984 8.72656 9.64453 8.9375C10.457 9.14844 11.3047 9.44531 12.1875 9.82812L11.0156 12.6523C10.1016 12.2773 9.34375 12.0156 8.74219 11.8672C8.14844 11.7188 7.5625 11.6445 6.98438 11.6445C6.29688 11.6445 5.76953 11.8047 5.40234 12.125C5.03516 12.4453 4.85156 12.8633 4.85156 13.3789C4.85156 13.6992 4.92578 13.9805 5.07422 14.2227C5.22266 14.457 5.45703 14.6875 5.77734 14.9141C6.10547 15.1328 6.875 15.5312 8.08594 16.1094C9.6875 16.875 10.7852 17.6445 11.3789 18.418C11.9727 19.1836 12.2695 20.125 12.2695 21.2422ZM21.9844 26H18.3516V11.8906H13.6992V8.86719H26.6367V11.8906H21.9844V26ZM39.1406 26H29.2734V8.86719H39.1406V11.8438H32.9062V15.6055H38.707V18.582H32.9062V23H39.1406V26ZM46.3594 16.9297H47.5547C48.6719 16.9297 49.5078 16.7109 50.0625 16.2734C50.6172 15.8281 50.8945 15.1836 50.8945 14.3398C50.8945 13.4883 50.6602 12.8594 50.1914 12.4531C49.7305 12.0469 49.0039 11.8438 48.0117 11.8438H46.3594V16.9297ZM54.5625 14.2109C54.5625 16.0547 53.9844 17.4648 52.8281 18.4414C51.6797 19.418 50.043 19.9062 47.918 19.9062H46.3594V26H42.7266V8.86719H48.1992C50.2773 8.86719 51.8555 9.31641 52.9336 10.2148C54.0195 11.1055 54.5625 12.4375 54.5625 14.2109Z" fill="#141313" fill-opacity="0.4"/>
<path d="M26.8438 43.4336C26.8438 46.4258 26.3516 48.6406 25.3672 50.0781C24.3906 51.5156 22.8828 52.2344 20.8438 52.2344C18.8672 52.2344 17.375 51.4922 16.3672 50.0078C15.3672 48.5234 14.8672 46.332 14.8672 43.4336C14.8672 40.4102 15.3555 38.1836 16.332 36.7539C17.3086 35.3164 18.8125 34.5977 20.8438 34.5977C22.8203 34.5977 24.3125 35.3477 25.3203 36.8477C26.3359 38.3477 26.8438 40.543 26.8438 43.4336ZM18.4648 43.4336C18.4648 45.5352 18.6445 47.043 19.0039 47.957C19.3711 48.8633 19.9844 49.3164 20.8438 49.3164C21.6875 49.3164 22.2969 48.8555 22.6719 47.9336C23.0469 47.0117 23.2344 45.5117 23.2344 43.4336C23.2344 41.332 23.043 39.8242 22.6602 38.9102C22.2852 37.9883 21.6797 37.5273 20.8438 37.5273C19.9922 37.5273 19.3828 37.9883 19.0156 38.9102C18.6484 39.8242 18.4648 41.332 18.4648 43.4336ZM41.0352 48.4492H38.9727V52H35.4336V48.4492H28.1211V45.9297L35.6328 34.8672H38.9727V45.6367H41.0352V48.4492ZM35.4336 45.6367V42.7305C35.4336 42.2461 35.4531 41.543 35.4922 40.6211C35.5312 39.6992 35.5625 39.1641 35.5859 39.0156H35.4922C35.2031 39.6562 34.8555 40.2812 34.4492 40.8906L31.3086 45.6367H35.4336Z" fill="#141313"/>
</svg>
