<svg width="70" height="70" viewBox="0 0 70 70" fill="none" xmlns="http://www.w3.org/2000/svg">
<circle cx="35" cy="35" r="35" fill="#1E90FF"/>
<path d="M25.5625 33.8125C22.9778 33.8125 20.875 31.7097 20.875 29.125C20.875 26.5403 22.9778 24.4375 25.5625 24.4375C28.1472 24.4375 30.25 26.5403 30.25 29.125C30.25 31.7097 28.1472 33.8125 25.5625 33.8125Z" fill="white"/>
<path d="M42.4375 33.8125C39.8528 33.8125 37.75 31.7097 37.75 29.125C37.75 26.5403 39.8528 24.4375 42.4375 24.4375C45.0222 24.4375 47.125 26.5403 47.125 29.125C47.125 31.7097 45.0222 33.8125 42.4375 33.8125Z" fill="white"/>
<path d="M38.9714 19.9346C38.7314 19.9346 38.4915 19.843 38.3084 19.6598C37.1579 18.5089 35.6278 17.875 33.9998 17.875C32.3717 17.875 30.8416 18.5089 29.6911 19.6598C29.325 20.026 28.7315 20.0262 28.3653 19.6601C27.9991 19.2941 27.999 18.7005 28.365 18.3343C29.8697 16.829 31.8707 16 33.9998 16C36.1288 16 38.1299 16.829 39.6345 18.3343C40.0006 18.7005 40.0005 19.2941 39.6343 19.6601C39.4512 19.843 39.2113 19.9346 38.9714 19.9346Z" fill="white"/>
<path d="M36.652 22.2543C36.4121 22.2543 36.1722 22.1628 35.9891 21.9797C35.4581 21.4487 34.7517 21.1563 34.0001 21.1563C33.2484 21.1563 32.542 21.4487 32.0111 21.9797C31.645 22.3458 31.0514 22.3459 30.6853 21.9797C30.3191 21.6136 30.3191 21.02 30.6853 20.6539C31.5704 19.7688 32.7476 19.2812 34.0001 19.2812C35.2526 19.2812 36.4298 19.7688 37.315 20.6539C37.681 21.0201 37.681 21.6136 37.315 21.9797C37.1318 22.1628 36.8919 22.2543 36.652 22.2543Z" fill="white"/>
<path d="M34 26.3125C33.2246 26.3125 32.5938 25.6816 32.5938 24.9062C32.5938 24.1309 33.2246 23.5 34 23.5C34.7754 23.5 35.4062 24.1309 35.4062 24.9062C35.4062 25.6816 34.7754 26.3125 34 26.3125Z" fill="white"/>
<path d="M30.3535 34.0205C30.2446 33.9041 30.0623 33.8997 29.9437 34.0063C28.7811 35.051 27.2448 35.6876 25.5625 35.6876C23.8802 35.6876 22.3439 35.051 21.1813 34.0063C21.0627 33.8997 20.8804 33.9041 20.7715 34.0205C19.6734 35.1942 19 36.7699 19 38.5001V44.1498C19 44.5533 19.2582 44.9115 19.641 45.0391C21.5539 45.6768 23.5462 46.0001 25.5625 46.0001C27.5788 46.0001 29.5711 45.6768 31.484 45.0392C31.8668 44.9116 32.125 44.5533 32.125 44.1498V38.5001C32.125 36.7699 31.4516 35.1942 30.3535 34.0205Z" fill="white"/>
<path d="M47.2285 34.0205C47.1196 33.9041 46.9373 33.8997 46.8187 34.0063C45.6561 35.051 44.1198 35.6876 42.4375 35.6876C40.7552 35.6876 39.2189 35.051 38.0563 34.0063C37.9377 33.8997 37.7554 33.9041 37.6465 34.0205C36.5484 35.1942 35.875 36.7699 35.875 38.5001V44.1498C35.875 44.5533 36.1332 44.9115 36.516 45.0391C38.4289 45.6768 40.4212 46.0001 42.4375 46.0001C44.4538 46.0001 46.4461 45.6768 48.359 45.0392C48.7418 44.9116 49 44.5533 49 44.1498V38.5001C49 36.7699 48.3266 35.1942 47.2285 34.0205Z" fill="white"/>
</svg>
