<svg width="80" height="107" viewBox="0 0 80 107" fill="none" xmlns="http://www.w3.org/2000/svg">
<circle cx="39.5967" cy="56.8129" r="24.1024" stroke="white" stroke-width="3.4432"/>
<path d="M17.956 36L12.1187 16.979H11.9695C12.1795 20.8485 12.2846 23.4299 12.2846 24.7234V36H7.69102V11.7553H14.6891L20.4269 30.2954H20.5264L26.6125 11.7553H33.6106V36H28.818V24.5244C28.818 23.9827 28.8236 23.3581 28.8346 22.6505C28.8567 21.9429 28.9341 20.0635 29.0668 17.0122H28.9175L22.6657 36H17.956Z" fill="black"/>
<path d="M76.3594 80.7616H62.3963V56.5169H76.3594V60.7291H67.5371V66.0523H75.7458V70.2644H67.5371V76.5163H76.3594V80.7616Z" fill="black"/>
<path d="M13.723 84.3627H23.3413V96.9328C21.7825 97.4413 20.3121 97.7951 18.9302 97.9941C17.5593 98.2042 16.1552 98.3092 14.718 98.3092C11.0587 98.3092 8.26163 97.2368 6.32692 95.0921C4.40327 92.9362 3.44144 89.8462 3.44144 85.822C3.44144 81.9084 4.55804 78.8571 6.79125 76.6681C9.03551 74.4791 12.1421 73.3846 16.111 73.3846C18.5985 73.3846 20.9976 73.8821 23.3081 74.8771L21.6001 78.9897C19.8312 78.1053 17.9905 77.6631 16.0779 77.6631C13.8557 77.6631 12.0758 78.4093 10.7381 79.9018C9.40035 81.3943 8.73149 83.4009 8.73149 85.9215C8.73149 88.5527 9.26768 90.5648 10.3401 91.9578C11.4235 93.3398 12.9934 94.0307 15.0497 94.0307C16.1221 94.0307 17.211 93.9202 18.3166 93.6991V88.6412H13.723V84.3627Z" fill="black"/>
</svg>
