<svg width="298" height="298" viewBox="0 0 298 298" fill="none" xmlns="http://www.w3.org/2000/svg">
<circle cx="149" cy="149" r="149" fill="#1E90FF"/>
<g clip-path="url(#clip0)">
<path d="M187.793 183.103H182.621V208.965C182.621 211.818 180.301 214.138 177.448 214.138H89.5172C86.6645 214.138 84.3448 211.818 84.3448 208.965V152.069C84.3448 149.216 86.6645 146.897 89.5172 146.897H141.241V141.724H86.931C82.6539 141.724 79.1724 145.206 79.1724 149.483V219.31H187.793V183.103Z" fill="white"/>
<path d="M89.5173 152.069V208.966H177.448V183.104H156.759V152.069H89.5173ZM136.069 198.621H105.035V183.104H94.6897V157.242H125.724V172.759H136.069V198.621ZM172.276 203.793H141.241V198.621H172.276V203.793ZM172.276 188.276V193.448H141.241V188.276H172.276Z" fill="white"/>
<path d="M99.8621 162.414H120.552V177.931H99.8621V162.414Z" fill="white"/>
<path d="M156.759 115.862H208.483V90H146.414V146.897H156.759V115.862ZM161.931 95.1724H203.31V100.345H161.931V95.1724ZM151.586 95.1724H156.759V100.345H151.586V95.1724ZM151.586 105.517H203.31V110.69H151.586V105.517Z" fill="white"/>
<path d="M146.981 229.655L148.274 224.483H118.692L119.985 229.655H146.981Z" fill="white"/>
<path d="M125.724 183.103H110.207V193.448H130.896V177.931H125.724V183.103Z" fill="white"/>
<path d="M151.019 234.828H115.946L113.36 224.483H74V232.242C74 236.519 77.4815 240 81.7586 240H185.207C189.484 240 192.966 236.519 192.966 232.242V224.483H153.605L151.019 234.828Z" fill="white"/>
<path d="M206.99 137.82L188.933 154.255L184.684 148.454L181.027 151.262L188.272 161.152L210.045 141.339L206.99 137.82Z" fill="white"/>
<path d="M161.931 121.034V177.931H224V121.034H161.931ZM173.87 150.238L185.73 141.127L189.708 146.556L207.425 130.427L217.263 141.761L187.502 168.848L173.87 150.238ZM218.828 172.759H203.31V167.586H213.655V159.828H218.828V172.759ZM218.828 154.655H213.655V149.483H218.828V154.655Z" fill="white"/>
</g>
<defs>
<clipPath id="clip0">
<rect width="150" height="150" fill="white" transform="translate(74 90)"/>
</clipPath>
</defs>
</svg>
