<svg width="1439" height="805" viewBox="0 0 1439 805" fill="none" xmlns="http://www.w3.org/2000/svg">
<rect width="1440" height="796" fill="#1E90FF"/>
<g filter="url(#filter0_d)">
<path d="M0 528C196 797 877.645 528 1440 528V797H0V528Z" fill="#E0F0FF"/>
</g>
<path d="M625.967 95L624.104 88.8828H614.734L612.871 95H607L616.07 69.1953H622.732L631.838 95H625.967ZM622.803 84.3125C621.08 78.7695 620.107 75.6348 619.885 74.9082C619.674 74.1816 619.521 73.6074 619.428 73.1855C619.041 74.6855 617.934 78.3945 616.105 84.3125H622.803ZM640.539 81.3945H642.332C644.008 81.3945 645.262 81.0664 646.094 80.4102C646.926 79.7422 647.342 78.7754 647.342 77.5098C647.342 76.2324 646.99 75.2891 646.287 74.6797C645.596 74.0703 644.506 73.7656 643.018 73.7656H640.539V81.3945ZM652.844 77.3164C652.844 80.082 651.977 82.1973 650.242 83.6621C648.52 85.127 646.064 85.8594 642.877 85.8594H640.539V95H635.09V69.3008H643.299C646.416 69.3008 648.783 69.9746 650.4 71.3223C652.029 72.6582 652.844 74.6562 652.844 77.3164ZM663.145 81.3945H664.938C666.613 81.3945 667.867 81.0664 668.699 80.4102C669.531 79.7422 669.947 78.7754 669.947 77.5098C669.947 76.2324 669.596 75.2891 668.893 74.6797C668.201 74.0703 667.111 73.7656 665.623 73.7656H663.145V81.3945ZM675.449 77.3164C675.449 80.082 674.582 82.1973 672.848 83.6621C671.125 85.127 668.67 85.8594 665.482 85.8594H663.145V95H657.695V69.3008H665.904C669.021 69.3008 671.389 69.9746 673.006 71.3223C674.635 72.6582 675.449 74.6562 675.449 77.3164ZM699.408 80.5684H709.604V93.8926C707.951 94.4316 706.393 94.8066 704.928 95.0176C703.475 95.2402 701.986 95.3516 700.463 95.3516C696.584 95.3516 693.619 94.2148 691.568 91.9414C689.529 89.6562 688.51 86.3809 688.51 82.1152C688.51 77.9668 689.693 74.7324 692.061 72.4121C694.439 70.0918 697.732 68.9316 701.939 68.9316C704.576 68.9316 707.119 69.459 709.568 70.5137L707.758 74.873C705.883 73.9355 703.932 73.4668 701.904 73.4668C699.549 73.4668 697.662 74.2578 696.244 75.8398C694.826 77.4219 694.117 79.5488 694.117 82.2207C694.117 85.0098 694.686 87.1426 695.822 88.6191C696.971 90.084 698.635 90.8164 700.814 90.8164C701.951 90.8164 703.105 90.6992 704.277 90.4648V85.1035H699.408V80.5684ZM731.471 95L729.607 88.8828H720.238L718.375 95H712.504L721.574 69.1953H728.236L737.342 95H731.471ZM728.307 84.3125C726.584 78.7695 725.611 75.6348 725.389 74.9082C725.178 74.1816 725.025 73.6074 724.932 73.1855C724.545 74.6855 723.438 78.3945 721.609 84.3125H728.307ZM740.594 95V69.3008H746.043V90.5H756.467V95H740.594ZM760.949 95V69.3008H766.398V90.5H776.822V95H760.949ZM796.105 95H781.305V69.3008H796.105V73.7656H786.754V79.4082H795.455V83.873H786.754V90.5H796.105V95ZM806.934 80.709H808.691C810.414 80.709 811.686 80.4219 812.506 79.8477C813.326 79.2734 813.736 78.3711 813.736 77.1406C813.736 75.9219 813.314 75.0547 812.471 74.5391C811.639 74.0234 810.344 73.7656 808.586 73.7656H806.934V80.709ZM806.934 85.1387V95H801.484V69.3008H808.973C812.465 69.3008 815.049 69.9395 816.725 71.2168C818.4 72.4824 819.238 74.4102 819.238 77C819.238 78.5117 818.822 79.8594 817.99 81.043C817.158 82.2148 815.98 83.1348 814.457 83.8027C818.324 89.5801 820.844 93.3125 822.016 95H815.969L809.834 85.1387H806.934ZM833.248 79.8828L838.609 69.3008H844.48L835.955 84.998V95H830.541V85.1738L822.016 69.3008H827.922L833.248 79.8828Z" fill="white"/>
<circle cx="204.5" cy="171.5" r="45.5" fill="white"/>
<circle cx="1247.5" cy="301.5" r="45.5" fill="white"/>
<circle cx="1155.5" cy="58.5" r="23.5" fill="#C4C4C4"/>
<circle cx="1155.5" cy="58.5" r="23.5" fill="white"/>
<circle cx="1018.5" cy="171.5" r="23.5" fill="white"/>
<circle cx="472.5" cy="56.5" r="23.5" fill="white"/>
<circle cx="677.5" cy="227.5" r="23.5" fill="white"/>
<circle cx="181.5" cy="321.5" r="23.5" fill="white"/>
<defs>
<filter id="filter0_d" x="0" y="528" width="1464" height="277" filterUnits="userSpaceOnUse" color-interpolation-filters="sRGB">
<feFlood flood-opacity="0" result="BackgroundImageFix"/>
<feColorMatrix in="SourceAlpha" type="matrix" values="0 0 0 0 0 0 0 0 0 0 0 0 0 0 0 0 0 0 127 0"/>
<feOffset dx="20" dy="4"/>
<feGaussianBlur stdDeviation="2"/>
<feColorMatrix type="matrix" values="0 0 0 0 0 0 0 0 0 0 0 0 0 0 0 0 0 0 0.25 0"/>
<feBlend mode="normal" in2="BackgroundImageFix" result="effect1_dropShadow"/>
<feBlend mode="normal" in="SourceGraphic" in2="effect1_dropShadow" result="shape"/>
</filter>
</defs>
</svg>
