<svg width="56" height="431" viewBox="0 0 56 431" fill="none" xmlns="http://www.w3.org/2000/svg">
<path d="M28 74L31.1432 83.6738H41.3148L33.0858 89.6525L36.229 99.3262L28 93.3475L19.771 99.3262L22.9142 89.6525L14.6852 83.6738H24.8568L28 74Z" fill="#C4C4C4"/>
<path d="M28 121L31.1432 130.674H41.3148L33.0858 136.652L36.229 146.326L28 140.348L19.771 146.326L22.9142 136.652L14.6852 130.674H24.8568L28 121Z" fill="#C4C4C4"/>
<path d="M28 168L31.1432 177.674H41.3148L33.0858 183.652L36.229 193.326L28 187.348L19.771 193.326L22.9142 183.652L14.6852 177.674H24.8568L28 168Z" fill="#C4C4C4"/>
<path d="M28 215L31.1432 224.674H41.3148L33.0858 230.652L36.229 240.326L28 234.348L19.771 240.326L22.9142 230.652L14.6852 224.674H24.8568L28 215Z" fill="#C4C4C4"/>
<path d="M28 262L31.1432 271.674H41.3148L33.0858 277.652L36.229 287.326L28 281.348L19.771 287.326L22.9142 277.652L14.6852 271.674H24.8568L28 262Z" fill="#C4C4C4"/>
<path d="M28 309L31.1432 318.674H41.3148L33.0858 324.652L36.229 334.326L28 328.348L19.771 334.326L22.9142 324.652L14.6852 318.674H24.8568L28 309Z" fill="#C4C4C4"/>
<path d="M28 356L31.1432 365.674H41.3148L33.0858 371.652L36.229 381.326L28 375.348L19.771 381.326L22.9142 371.652L14.6852 365.674H24.8568L28 356Z" fill="#C4C4C4"/>
<path d="M28 403L31.1432 412.674H41.3148L33.0858 418.652L36.229 428.326L28 422.348L19.771 428.326L22.9142 418.652L14.6852 412.674H24.8568L28 403Z" fill="#C4C4C4"/>
<path d="M12.2695 21.2422C12.2695 22.7891 11.7109 24.0078 10.5938 24.8984C9.48438 25.7891 7.9375 26.2344 5.95312 26.2344C4.125 26.2344 2.50781 25.8906 1.10156 25.2031V21.8281C2.25781 22.3438 3.23438 22.707 4.03125 22.918C4.83594 23.1289 5.57031 23.2344 6.23438 23.2344C7.03125 23.2344 7.64062 23.082 8.0625 22.7773C8.49219 22.4727 8.70703 22.0195 8.70703 21.418C8.70703 21.082 8.61328 20.7852 8.42578 20.5273C8.23828 20.2617 7.96094 20.0078 7.59375 19.7656C7.23438 19.5234 6.49609 19.1367 5.37891 18.6055C4.33203 18.1133 3.54688 17.6406 3.02344 17.1875C2.5 16.7344 2.08203 16.207 1.76953 15.6055C1.45703 15.0039 1.30078 14.3008 1.30078 13.4961C1.30078 11.9805 1.8125 10.7891 2.83594 9.92188C3.86719 9.05469 5.28906 8.62109 7.10156 8.62109C7.99219 8.62109 8.83984 8.72656 9.64453 8.9375C10.457 9.14844 11.3047 9.44531 12.1875 9.82812L11.0156 12.6523C10.1016 12.2773 9.34375 12.0156 8.74219 11.8672C8.14844 11.7188 7.5625 11.6445 6.98438 11.6445C6.29688 11.6445 5.76953 11.8047 5.40234 12.125C5.03516 12.4453 4.85156 12.8633 4.85156 13.3789C4.85156 13.6992 4.92578 13.9805 5.07422 14.2227C5.22266 14.457 5.45703 14.6875 5.77734 14.9141C6.10547 15.1328 6.875 15.5312 8.08594 16.1094C9.6875 16.875 10.7852 17.6445 11.3789 18.418C11.9727 19.1836 12.2695 20.125 12.2695 21.2422ZM21.9844 26H18.3516V11.8906H13.6992V8.86719H26.6367V11.8906H21.9844V26ZM39.1406 26H29.2734V8.86719H39.1406V11.8438H32.9062V15.6055H38.707V18.582H32.9062V23H39.1406V26ZM46.3594 16.9297H47.5547C48.6719 16.9297 49.5078 16.7109 50.0625 16.2734C50.6172 15.8281 50.8945 15.1836 50.8945 14.3398C50.8945 13.4883 50.6602 12.8594 50.1914 12.4531C49.7305 12.0469 49.0039 11.8438 48.0117 11.8438H46.3594V16.9297ZM54.5625 14.2109C54.5625 16.0547 53.9844 17.4648 52.8281 18.4414C51.6797 19.418 50.043 19.9062 47.918 19.9062H46.3594V26H42.7266V8.86719H48.1992C50.2773 8.86719 51.8555 9.31641 52.9336 10.2148C54.0195 11.1055 54.5625 12.4375 54.5625 14.2109Z" fill="#141313" fill-opacity="0.4"/>
<path d="M26.8438 48.4336C26.8438 51.4258 26.3516 53.6406 25.3672 55.0781C24.3906 56.5156 22.8828 57.2344 20.8438 57.2344C18.8672 57.2344 17.375 56.4922 16.3672 55.0078C15.3672 53.5234 14.8672 51.332 14.8672 48.4336C14.8672 45.4102 15.3555 43.1836 16.332 41.7539C17.3086 40.3164 18.8125 39.5977 20.8438 39.5977C22.8203 39.5977 24.3125 40.3477 25.3203 41.8477C26.3359 43.3477 26.8438 45.543 26.8438 48.4336ZM18.4648 48.4336C18.4648 50.5352 18.6445 52.043 19.0039 52.957C19.3711 53.8633 19.9844 54.3164 20.8438 54.3164C21.6875 54.3164 22.2969 53.8555 22.6719 52.9336C23.0469 52.0117 23.2344 50.5117 23.2344 48.4336C23.2344 46.332 23.043 44.8242 22.6602 43.9102C22.2852 42.9883 21.6797 42.5273 20.8438 42.5273C19.9922 42.5273 19.3828 42.9883 19.0156 43.9102C18.6484 44.8242 18.4648 46.332 18.4648 48.4336ZM39.9805 43.6992C39.9805 44.7695 39.6562 45.6797 39.0078 46.4297C38.3594 47.1797 37.4492 47.6953 36.2773 47.9766V48.0469C37.6602 48.2188 38.707 48.6406 39.418 49.3125C40.1289 49.9766 40.4844 50.875 40.4844 52.0078C40.4844 53.6562 39.8867 54.9414 38.6914 55.8633C37.4961 56.7773 35.7891 57.2344 33.5703 57.2344C31.7109 57.2344 30.0625 56.9258 28.625 56.3086V53.2266C29.2891 53.5625 30.0195 53.8359 30.8164 54.0469C31.6133 54.2578 32.4023 54.3633 33.1836 54.3633C34.3789 54.3633 35.2617 54.1602 35.832 53.7539C36.4023 53.3477 36.6875 52.6953 36.6875 51.7969C36.6875 50.9922 36.3594 50.4219 35.7031 50.0859C35.0469 49.75 34 49.582 32.5625 49.582H31.2617V46.8047H32.5859C33.9141 46.8047 34.8828 46.6328 35.4922 46.2891C36.1094 45.9375 36.418 45.3398 36.418 44.4961C36.418 43.1992 35.6055 42.5508 33.9805 42.5508C33.418 42.5508 32.8438 42.6445 32.2578 42.832C31.6797 43.0195 31.0352 43.3438 30.3242 43.8047L28.6484 41.3086C30.2109 40.1836 32.0742 39.6211 34.2383 39.6211C36.0117 39.6211 37.4102 39.9805 38.4336 40.6992C39.4648 41.418 39.9805 42.418 39.9805 43.6992Z" fill="#141313"/>
</svg>
