<svg width="70" height="70" viewBox="0 0 70 70" fill="none" xmlns="http://www.w3.org/2000/svg">
<circle cx="35" cy="35" r="35" fill="#1E90FF"/>
<path d="M41 32.9609C43.7506 32.9609 45.9805 30.7311 45.9805 27.9805C45.9805 25.2298 43.7506 23 41 23C38.2494 23 36.0195 25.2298 36.0195 27.9805C36.0195 30.7311 38.2494 32.9609 41 32.9609Z" fill="white"/>
<path d="M44.6598 33.6357C43.6053 34.3204 42.3484 34.7188 41.0001 34.7188C39.6518 34.7188 38.3949 34.3204 37.3404 33.6357C36.1747 34.0811 35.0938 34.7384 34.1541 35.5819L41.0001 38.1492L47.8461 35.5819C46.9063 34.7384 45.8255 34.0811 44.6598 33.6357Z" fill="white"/>
<path d="M51.5469 41.1641H50.9609C50.4755 41.1641 50.082 41.5576 50.082 42.043V44.3867C50.082 44.8721 50.4755 45.2656 50.9609 45.2656H51.5469C52.6795 45.2656 53.5977 44.3475 53.5977 43.2148C53.5977 42.0822 52.6795 41.1641 51.5469 41.1641Z" fill="white"/>
<path d="M31.1244 36.727C30.8874 36.8913 30.7461 37.1612 30.7461 37.4494V39.4062H31.0391C32.4929 39.4062 33.6758 40.589 33.6758 42.0429V44.3866C33.6758 45.8405 32.4929 47.0234 31.0391 47.0234H30.7461V48.8752C30.7461 49.2416 30.9734 49.5696 31.3164 49.6982L40.1211 52.9999V39.6968L31.9336 36.6265C31.6637 36.5252 31.3613 36.5627 31.1244 36.727Z" fill="white"/>
<path d="M48.3242 44.3866V42.0429C48.3242 40.589 49.5071 39.4062 50.9609 39.4062H51.2539V37.4494C51.2539 37.1612 51.1126 36.8913 50.8756 36.727C50.6387 36.5627 50.3362 36.5252 50.0664 36.6265L41.8789 39.6968V52.9999L50.6836 49.6982C51.0266 49.5696 51.2539 49.2416 51.2539 48.8752V47.0234H50.9609C49.5071 47.0234 48.3242 45.8405 48.3242 44.3866Z" fill="white"/>
<path d="M31.918 44.3867V42.043C31.918 41.5576 31.5245 41.1641 31.0391 41.1641H30.4531C29.3205 41.1641 28.4023 42.0822 28.4023 43.2148C28.4023 44.3475 29.3205 45.2656 30.4531 45.2656H31.0391C31.5245 45.2656 31.918 44.8721 31.918 44.3867Z" fill="white"/>
</svg>
