<svg width="70" height="70" viewBox="0 0 70 70" fill="none" xmlns="http://www.w3.org/2000/svg">
<circle cx="35" cy="35" r="35" fill="#1E90FF"/>
<path d="M37.5 41.25H32.5C32.1685 41.25 31.8505 41.1183 31.6161 40.8838C31.3817 40.6494 31.25 40.3315 31.25 40V38.5415L20.2155 33.5259C20.1406 33.4921 20.0698 33.4531 20 33.4132V46.25C20 46.5815 20.1317 46.8994 20.3661 47.1338C20.6005 47.3683 20.9185 47.5 21.25 47.5H48.75C49.0815 47.5 49.3995 47.3683 49.6339 47.1338C49.8683 46.8994 50 46.5815 50 46.25V33.4134C49.9303 33.4537 49.8594 33.4915 49.7848 33.5257L38.75 38.5417V40C38.75 40.3315 38.6183 40.6494 38.3839 40.8838C38.1495 41.1183 37.8315 41.25 37.5 41.25Z" fill="white"/>
<path d="M32.5 35H37.5C37.8315 35 38.1495 35.1317 38.3839 35.3661C38.6183 35.6005 38.75 35.9185 38.75 36.25V37.1686L49.2673 32.3873C49.4857 32.2881 49.6709 32.128 49.8008 31.9264C49.9308 31.7247 49.9999 31.4899 50 31.25V26.25C50 25.9185 49.8683 25.6005 49.6339 25.3661C49.3995 25.1317 49.0815 25 48.75 25H40V21.25C40 20.9185 39.8683 20.6005 39.6339 20.3661C39.3995 20.1317 39.0815 20 38.75 20H31.25C30.9185 20 30.6005 20.1317 30.3661 20.3661C30.1317 20.6005 30 20.9185 30 21.25V25H21.25C20.9185 25 20.6005 25.1317 20.3661 25.3661C20.1317 25.6005 20 25.9185 20 26.25V31.25C20 31.49 20.0691 31.7249 20.199 31.9267C20.3289 32.1285 20.5142 32.2886 20.7327 32.388L31.25 37.1686V36.25C31.25 35.9185 31.3817 35.6005 31.6161 35.3661C31.8505 35.1317 32.1685 35 32.5 35ZM32.5 22.5H37.5V25H32.5V22.5Z" fill="white"/>
</svg>
