<svg width="70" height="70" viewBox="0 0 70 70" fill="none" xmlns="http://www.w3.org/2000/svg">
<circle cx="35" cy="35" r="35" fill="#1E90FF"/>
<path d="M26.5625 38.8125C23.9778 38.8125 21.875 36.7097 21.875 34.125C21.875 31.5403 23.9778 29.4375 26.5625 29.4375C29.1472 29.4375 31.25 31.5403 31.25 34.125C31.25 36.7097 29.1472 38.8125 26.5625 38.8125Z" fill="white"/>
<path d="M43.4375 38.8125C40.8528 38.8125 38.75 36.7097 38.75 34.125C38.75 31.5403 40.8528 29.4375 43.4375 29.4375C46.0222 29.4375 48.125 31.5403 48.125 34.125C48.125 36.7097 46.0222 38.8125 43.4375 38.8125Z" fill="white"/>
<path d="M39.9714 24.9346C39.7314 24.9346 39.4915 24.843 39.3084 24.6598C38.1579 23.5089 36.6278 22.875 34.9998 22.875C33.3717 22.875 31.8416 23.5089 30.6911 24.6598C30.325 25.026 29.7315 25.0262 29.3653 24.6601C28.9991 24.2941 28.999 23.7005 29.365 23.3343C30.8697 21.829 32.8707 21 34.9998 21C37.1288 21 39.1299 21.829 40.6345 23.3343C41.0006 23.7005 41.0005 24.2941 40.6343 24.6601C40.4512 24.843 40.2113 24.9346 39.9714 24.9346Z" fill="white"/>
<path d="M37.652 27.2543C37.4121 27.2543 37.1722 27.1628 36.9891 26.9797C36.4581 26.4487 35.7517 26.1563 35.0001 26.1563C34.2484 26.1563 33.542 26.4487 33.0111 26.9797C32.645 27.3458 32.0514 27.3459 31.6853 26.9797C31.3191 26.6136 31.3191 26.02 31.6853 25.6539C32.5704 24.7688 33.7476 24.2812 35.0001 24.2812C36.2526 24.2812 37.4298 24.7688 38.315 25.6539C38.681 26.0201 38.681 26.6136 38.315 26.9797C38.1318 27.1628 37.8919 27.2543 37.652 27.2543Z" fill="white"/>
<path d="M35 31.3125C34.2246 31.3125 33.5938 30.6816 33.5938 29.9062C33.5938 29.1309 34.2246 28.5 35 28.5C35.7754 28.5 36.4062 29.1309 36.4062 29.9062C36.4062 30.6816 35.7754 31.3125 35 31.3125Z" fill="white"/>
<path d="M31.3535 39.0205C31.2446 38.9041 31.0623 38.8997 30.9437 39.0063C29.7811 40.051 28.2448 40.6876 26.5625 40.6876C24.8802 40.6876 23.3439 40.051 22.1813 39.0063C22.0627 38.8997 21.8804 38.9041 21.7715 39.0205C20.6734 40.1942 20 41.7699 20 43.5001V49.1498C20 49.5533 20.2582 49.9115 20.641 50.0392C22.5539 50.6768 24.5462 51.0001 26.5625 51.0001C28.5788 51.0001 30.5711 50.6768 32.484 50.0392C32.8668 49.9116 33.125 49.5534 33.125 49.1498V43.5001C33.125 41.7699 32.4516 40.1942 31.3535 39.0205Z" fill="white"/>
<path d="M48.2285 39.0205C48.1196 38.9041 47.9373 38.8997 47.8187 39.0063C46.6561 40.051 45.1198 40.6876 43.4375 40.6876C41.7552 40.6876 40.2189 40.051 39.0563 39.0063C38.9377 38.8997 38.7554 38.9041 38.6465 39.0205C37.5484 40.1942 36.875 41.7699 36.875 43.5001V49.1498C36.875 49.5533 37.1332 49.9115 37.516 50.0392C39.4289 50.6768 41.4212 51.0001 43.4375 51.0001C45.4538 51.0001 47.4461 50.6768 49.359 50.0392C49.7418 49.9116 50 49.5534 50 49.1498V43.5001C50 41.7699 49.3266 40.1942 48.2285 39.0205Z" fill="white"/>
</svg>
