<svg width="298" height="298" viewBox="0 0 298 298" fill="none" xmlns="http://www.w3.org/2000/svg">
<circle cx="149" cy="149" r="149" fill="#1E90FF"/>
<path d="M188.115 103.612C188.115 100.093 186.742 96.7799 184.253 94.2908L171.824 81.8625C169.37 79.4077 165.886 78 162.418 78H161.663V104.367H188.116L188.115 103.612Z" fill="white"/>
<path d="M154.255 168.685C155.096 166.131 156.564 163.754 158.478 161.827L188.232 132.192V113.156H157.353C154.924 113.156 153.102 111.191 153.102 108.762V78H87.1836C79.9139 78 74 83.9139 74 91.1836V214.816C74 222.086 79.9139 228 87.1836 228H174.932C182.201 228 188.232 222.086 188.232 214.816V182.018L183.403 186.73C181.446 188.67 179.155 190.082 176.571 190.945L162.598 195.61L160.469 195.726C156.95 195.726 153.62 194.013 151.551 191.147C149.5 188.293 148.942 184.593 150.058 181.25L154.255 168.685ZM95.9727 157.102H139.775C142.204 157.102 144.17 159.067 144.17 161.496C144.17 163.925 142.204 165.891 139.775 165.891H95.9727C93.5437 165.891 91.5781 163.925 91.5781 161.496C91.5781 159.067 93.5437 157.102 95.9727 157.102ZM91.5781 143.918C91.5781 141.489 93.5437 139.523 95.9727 139.523H139.775C142.204 139.523 144.17 141.489 144.17 143.918C144.17 146.347 142.204 148.312 139.775 148.312H95.9727C93.5437 148.312 91.5781 146.347 91.5781 143.918ZM91.5781 179.074C91.5781 176.645 93.5437 174.68 95.9727 174.68H139.775C142.204 174.68 144.17 176.645 144.17 179.074C144.17 181.503 142.204 183.469 139.775 183.469H95.9727C93.5437 183.469 91.5781 181.503 91.5781 179.074ZM157.353 201.047C159.782 201.047 161.748 203.012 161.748 205.441C161.748 207.87 159.783 209.836 157.353 209.836H130.986C128.557 209.836 126.592 207.87 126.592 205.441C126.592 203.012 128.557 201.047 130.986 201.047H157.353ZM95.9727 130.734C93.5437 130.734 91.5781 128.769 91.5781 126.34C91.5781 123.911 93.5437 121.945 95.9727 121.945H157.353C159.782 121.945 161.748 123.911 161.748 126.34C161.748 128.769 159.782 130.734 157.353 130.734H95.9727Z" fill="white"/>
<path d="M162.216 172.573L158.393 184.043C157.82 185.761 159.455 187.395 161.173 186.821L172.636 182.993L162.216 172.573Z" fill="white"/>
<path d="M196.346 136.391L167.404 165.333L179.886 177.815C186.428 171.272 199.156 158.542 208.827 148.871L196.346 136.391Z" fill="white"/>
<path d="M221.418 123.786C219.873 122.233 217.598 121.344 215.186 121.344C212.774 121.344 210.5 122.233 208.946 123.791L202.56 130.177L215.04 142.656C218.536 139.16 220.953 136.744 221.427 136.27C224.859 132.832 224.859 127.232 221.418 123.786Z" fill="white"/>
<path d="M221.426 136.27C221.427 136.27 221.427 136.27 221.427 136.27C221.438 136.259 221.443 136.254 221.452 136.245C221.443 136.254 221.438 136.259 221.426 136.27Z" fill="white"/>
<path d="M221.452 136.245C221.466 136.23 221.483 136.214 221.491 136.206C221.482 136.214 221.466 136.23 221.452 136.245Z" fill="white"/>
<path d="M221.491 136.206C221.519 136.177 221.52 136.177 221.491 136.206V136.206Z" fill="white"/>
</svg>
