<svg width="56" height="423" viewBox="0 0 56 423" fill="none" xmlns="http://www.w3.org/2000/svg">
<path d="M25 66L28.1432 75.6738H38.3148L30.0858 81.6525L33.229 91.3262L25 85.3475L16.771 91.3262L19.9142 81.6525L11.6852 75.6738H21.8568L25 66Z" fill="#C4C4C4"/>
<path d="M25 113L28.1432 122.674H38.3148L30.0858 128.652L33.229 138.326L25 132.348L16.771 138.326L19.9142 128.652L11.6852 122.674H21.8568L25 113Z" fill="#C4C4C4"/>
<path d="M25 160L28.1432 169.674H38.3148L30.0858 175.652L33.229 185.326L25 179.348L16.771 185.326L19.9142 175.652L11.6852 169.674H21.8568L25 160Z" fill="#C4C4C4"/>
<path d="M25 207L28.1432 216.674H38.3148L30.0858 222.652L33.229 232.326L25 226.348L16.771 232.326L19.9142 222.652L11.6852 216.674H21.8568L25 207Z" fill="#C4C4C4"/>
<path d="M25 254L28.1432 263.674H38.3148L30.0858 269.652L33.229 279.326L25 273.348L16.771 279.326L19.9142 269.652L11.6852 263.674H21.8568L25 254Z" fill="#C4C4C4"/>
<path d="M25 301L28.1432 310.674H38.3148L30.0858 316.652L33.229 326.326L25 320.348L16.771 326.326L19.9142 316.652L11.6852 310.674H21.8568L25 301Z" fill="#C4C4C4"/>
<path d="M25 348L28.1432 357.674H38.3148L30.0858 363.652L33.229 373.326L25 367.348L16.771 373.326L19.9142 363.652L11.6852 357.674H21.8568L25 348Z" fill="#C4C4C4"/>
<path d="M25 395L28.1432 404.674H38.3148L30.0858 410.652L33.229 420.326L25 414.348L16.771 420.326L19.9142 410.652L11.6852 404.674H21.8568L25 395Z" fill="#C4C4C4"/>
<path d="M12.2695 21.2422C12.2695 22.7891 11.7109 24.0078 10.5938 24.8984C9.48438 25.7891 7.9375 26.2344 5.95312 26.2344C4.125 26.2344 2.50781 25.8906 1.10156 25.2031V21.8281C2.25781 22.3438 3.23438 22.707 4.03125 22.918C4.83594 23.1289 5.57031 23.2344 6.23438 23.2344C7.03125 23.2344 7.64062 23.082 8.0625 22.7773C8.49219 22.4727 8.70703 22.0195 8.70703 21.418C8.70703 21.082 8.61328 20.7852 8.42578 20.5273C8.23828 20.2617 7.96094 20.0078 7.59375 19.7656C7.23438 19.5234 6.49609 19.1367 5.37891 18.6055C4.33203 18.1133 3.54688 17.6406 3.02344 17.1875C2.5 16.7344 2.08203 16.207 1.76953 15.6055C1.45703 15.0039 1.30078 14.3008 1.30078 13.4961C1.30078 11.9805 1.8125 10.7891 2.83594 9.92188C3.86719 9.05469 5.28906 8.62109 7.10156 8.62109C7.99219 8.62109 8.83984 8.72656 9.64453 8.9375C10.457 9.14844 11.3047 9.44531 12.1875 9.82812L11.0156 12.6523C10.1016 12.2773 9.34375 12.0156 8.74219 11.8672C8.14844 11.7188 7.5625 11.6445 6.98438 11.6445C6.29688 11.6445 5.76953 11.8047 5.40234 12.125C5.03516 12.4453 4.85156 12.8633 4.85156 13.3789C4.85156 13.6992 4.92578 13.9805 5.07422 14.2227C5.22266 14.457 5.45703 14.6875 5.77734 14.9141C6.10547 15.1328 6.875 15.5312 8.08594 16.1094C9.6875 16.875 10.7852 17.6445 11.3789 18.418C11.9727 19.1836 12.2695 20.125 12.2695 21.2422ZM21.9844 26H18.3516V11.8906H13.6992V8.86719H26.6367V11.8906H21.9844V26ZM39.1406 26H29.2734V8.86719H39.1406V11.8438H32.9062V15.6055H38.707V18.582H32.9062V23H39.1406V26ZM46.3594 16.9297H47.5547C48.6719 16.9297 49.5078 16.7109 50.0625 16.2734C50.6172 15.8281 50.8945 15.1836 50.8945 14.3398C50.8945 13.4883 50.6602 12.8594 50.1914 12.4531C49.7305 12.0469 49.0039 11.8438 48.0117 11.8438H46.3594V16.9297ZM54.5625 14.2109C54.5625 16.0547 53.9844 17.4648 52.8281 18.4414C51.6797 19.418 50.043 19.9062 47.918 19.9062H46.3594V26H42.7266V8.86719H48.1992C50.2773 8.86719 51.8555 9.31641 52.9336 10.2148C54.0195 11.1055 54.5625 12.4375 54.5625 14.2109Z" fill="#141313" fill-opacity="0.4"/>
<path d="M23.8438 43.4336C23.8438 46.4258 23.3516 48.6406 22.3672 50.0781C21.3906 51.5156 19.8828 52.2344 17.8438 52.2344C15.8672 52.2344 14.375 51.4922 13.3672 50.0078C12.3672 48.5234 11.8672 46.332 11.8672 43.4336C11.8672 40.4102 12.3555 38.1836 13.332 36.7539C14.3086 35.3164 15.8125 34.5977 17.8438 34.5977C19.8203 34.5977 21.3125 35.3477 22.3203 36.8477C23.3359 38.3477 23.8438 40.543 23.8438 43.4336ZM15.4648 43.4336C15.4648 45.5352 15.6445 47.043 16.0039 47.957C16.3711 48.8633 16.9844 49.3164 17.8438 49.3164C18.6875 49.3164 19.2969 48.8555 19.6719 47.9336C20.0469 47.0117 20.2344 45.5117 20.2344 43.4336C20.2344 41.332 20.043 39.8242 19.6602 38.9102C19.2852 37.9883 18.6797 37.5273 17.8438 37.5273C16.9922 37.5273 16.3828 37.9883 16.0156 38.9102C15.6484 39.8242 15.4648 41.332 15.4648 43.4336ZM34.625 52H31.0039V42.0859L31.0391 40.457L31.0977 38.6758C30.4961 39.2773 30.0781 39.6719 29.8438 39.8594L27.875 41.4414L26.1289 39.2617L31.6484 34.8672H34.625V52Z" fill="#141313"/>
</svg>
