<svg width="40" height="41" viewBox="0 0 40 41" fill="none" xmlns="http://www.w3.org/2000/svg">
<path d="M23.8289 20.0605C23.8289 17.9401 22.1151 16.2212 20.0008 16.2212C17.8865 16.2212 16.1727 17.9401 16.1727 20.0605C16.1727 22.181 17.8865 23.8999 20.0008 23.8999C22.1151 23.8999 23.8289 22.181 23.8289 20.0605Z" fill="white"/>
<path d="M28.9534 26.8533C28.7694 27.3534 28.4758 27.8061 28.0943 28.1777C27.7238 28.5602 27.2728 28.8547 26.7738 29.0392C26.3692 29.1969 25.7612 29.3845 24.6416 29.4356C23.4303 29.491 23.0672 29.5029 20.0008 29.5029C16.9341 29.5029 16.5709 29.4913 15.36 29.4359C14.2403 29.3845 13.6321 29.1969 13.2277 29.0392C12.7288 28.8547 12.2774 28.5602 11.9072 28.1777C11.5258 27.8061 11.2322 27.3537 11.0479 26.8533C10.8907 26.4475 10.7036 25.8375 10.6526 24.7145C10.5974 23.5 10.5855 23.1358 10.5855 20.0602C10.5855 16.9848 10.5974 16.6206 10.6526 15.4058C10.7036 14.2828 10.8907 13.6731 11.0479 13.2673C11.2322 12.7669 11.5254 12.3145 11.9069 11.9429C12.2774 11.5604 12.7284 11.2659 13.2274 11.0814C13.6321 10.9234 14.2403 10.7358 15.36 10.6847C16.5709 10.6293 16.9338 10.6177 20.0005 10.6177C23.0675 10.6177 23.4306 10.6293 24.6413 10.6847C25.7609 10.7358 26.3692 10.9234 26.7738 11.0814C27.7754 11.4688 28.567 12.2628 28.9534 13.2673C29.1105 13.6731 29.2976 14.2828 29.3489 15.4058C29.4041 16.6206 29.4157 16.9848 29.4157 20.0602C29.4157 23.1358 29.4041 23.5 29.3489 24.7145C29.2979 25.8375 29.1108 26.4475 28.9534 26.8533ZM20.0008 14.146C16.7436 14.146 14.1033 16.7938 14.1033 20.0605C14.1033 23.3271 16.7436 25.9749 20.0008 25.9749C23.2576 25.9749 25.898 23.3271 25.898 20.0605C25.898 16.7938 23.2576 14.146 20.0008 14.146ZM26.1311 24.8265C25.37 24.8265 24.7529 25.4454 24.7529 26.2087C24.7529 26.9721 25.37 27.5909 26.1311 27.5909C26.8922 27.5909 27.5093 26.9721 27.5093 26.2087C27.509 25.4454 26.8922 24.8265 26.1311 24.8265Z" fill="white"/>
<path d="M20.0008 40.1187C8.95679 40.1187 0.000793457 31.1367 0.000793457 20.0608C0.000793457 8.98483 8.95679 0.00292969 20.0008 0.00292969C31.0448 0.00292969 40.0008 8.98483 40.0008 20.0608C40.0008 31.1367 31.0448 40.1187 20.0008 40.1187ZM31.4159 15.3123C31.3604 14.0862 31.166 13.2491 30.8821 12.5164C30.2855 10.9693 29.066 9.74631 27.5234 9.14796C26.7931 8.86333 25.9581 8.66867 24.7359 8.61267C23.5112 8.55666 23.12 8.54319 20.0011 8.54319C16.8819 8.54319 16.491 8.55666 15.266 8.61267C14.0438 8.66867 13.2088 8.86333 12.4785 9.14796C11.7119 9.43719 11.0179 9.89046 10.4442 10.4766C9.86011 11.0516 9.40814 11.7479 9.11975 12.5164C8.83594 13.2488 8.64154 14.0862 8.586 15.312C8.52954 16.5405 8.51642 16.9329 8.51642 20.0608C8.51642 23.1887 8.52954 23.5811 8.58569 24.8093C8.64124 26.0354 8.83533 26.8724 9.11914 27.6051C9.40753 28.3737 9.8598 29.0699 10.4442 29.645C11.0176 30.2311 11.7119 30.6844 12.4782 30.9736C13.2088 31.2583 14.0435 31.4529 15.266 31.5089C16.4907 31.5649 16.8819 31.5784 20.0008 31.5784C23.1197 31.5784 23.5109 31.5649 24.7356 31.5086C25.9581 31.4529 26.7928 31.2583 27.5234 30.9739C28.2897 30.6847 28.9839 30.2311 29.5577 29.645C30.1418 29.0696 30.5941 28.3737 30.8821 27.6051C31.1663 26.8724 31.3604 26.0354 31.4162 24.8093C31.472 23.5811 31.4852 23.1887 31.4852 20.0608C31.4852 16.9329 31.472 16.5405 31.4159 15.3123Z" fill="white"/>
</svg>
