<svg width="113" height="113" viewBox="0 0 113 113" fill="none" xmlns="http://www.w3.org/2000/svg">
<circle cx="56.5" cy="56.5" r="55" stroke="white" stroke-width="3"/>
<path d="M20.1152 70L13.9277 49.8379H13.7695C13.9922 53.9395 14.1035 56.6758 14.1035 58.0469V70H9.23438V44.3008H16.6523L22.7344 63.9531H22.8398L29.291 44.3008H36.709V70H31.6289V57.8359C31.6289 57.2617 31.6348 56.5996 31.6465 55.8496C31.6699 55.0996 31.752 53.1074 31.8926 49.873H31.7344L25.1074 70H20.1152ZM42.0176 67.4863C42.0176 66.502 42.2812 65.7578 42.8086 65.2539C43.3359 64.75 44.1035 64.498 45.1113 64.498C46.084 64.498 46.834 64.7559 47.3613 65.2715C47.9004 65.7871 48.1699 66.5254 48.1699 67.4863C48.1699 68.4121 47.9004 69.1445 47.3613 69.6836C46.8223 70.2109 46.0723 70.4746 45.1113 70.4746C44.127 70.4746 43.3652 70.2168 42.8262 69.7012C42.2871 69.1738 42.0176 68.4355 42.0176 67.4863ZM68.2617 70H53.4609V44.3008H68.2617V48.7656H58.9102V54.4082H67.6113V58.873H58.9102V65.5H68.2617V70ZM72.4629 67.4863C72.4629 66.502 72.7266 65.7578 73.2539 65.2539C73.7812 64.75 74.5488 64.498 75.5566 64.498C76.5293 64.498 77.2793 64.7559 77.8066 65.2715C78.3457 65.7871 78.6152 66.5254 78.6152 67.4863C78.6152 68.4121 78.3457 69.1445 77.8066 69.6836C77.2676 70.2109 76.5176 70.4746 75.5566 70.4746C74.5723 70.4746 73.8105 70.2168 73.2715 69.7012C72.7324 69.1738 72.4629 68.4355 72.4629 67.4863ZM93.6621 55.5684H103.857V68.8926C102.205 69.4316 100.646 69.8066 99.1816 70.0176C97.7285 70.2402 96.2402 70.3516 94.7168 70.3516C90.8379 70.3516 87.873 69.2148 85.8223 66.9414C83.7832 64.6562 82.7637 61.3809 82.7637 57.1152C82.7637 52.9668 83.9473 49.7324 86.3145 47.4121C88.6934 45.0918 91.9863 43.9316 96.1934 43.9316C98.8301 43.9316 101.373 44.459 103.822 45.5137L102.012 49.873C100.137 48.9355 98.1855 48.4668 96.1582 48.4668C93.8027 48.4668 91.916 49.2578 90.498 50.8398C89.0801 52.4219 88.3711 54.5488 88.3711 57.2207C88.3711 60.0098 88.9395 62.1426 90.0762 63.6191C91.2246 65.084 92.8887 65.8164 95.0684 65.8164C96.2051 65.8164 97.3594 65.6992 98.5312 65.4648V60.1035H93.6621V55.5684Z" fill="white"/>
</svg>
