<svg width="40" height="41" viewBox="0 0 40 41" fill="none" xmlns="http://www.w3.org/2000/svg">
<path d="M20.0008 0.00292969C8.95679 0.00292969 0.000793457 8.98483 0.000793457 20.0608C0.000793457 31.1367 8.95679 40.1187 20.0008 40.1187C31.0448 40.1187 40.0008 31.1367 40.0008 20.0608C40.0008 8.98483 31.0448 0.00292969 20.0008 0.00292969ZM29.1326 15.6419C29.1414 15.8393 29.1457 16.0377 29.1457 16.2369C29.1457 22.3204 24.5284 29.3356 16.0845 29.3359C13.492 29.3359 11.0796 28.5738 9.04803 27.2679C9.40723 27.3104 9.77283 27.3315 10.143 27.3315C12.2939 27.3315 14.2733 26.5958 15.8446 25.3608C13.835 25.3235 12.1407 23.9924 11.556 22.1631C11.8358 22.217 12.1236 22.2464 12.4187 22.2464C12.8377 22.2464 13.2436 22.1897 13.6293 22.0841C11.5288 21.6624 9.94647 19.8006 9.94647 17.5713C9.94647 17.5505 9.94647 17.5318 9.94708 17.5125C10.5657 17.8575 11.2731 18.065 12.0262 18.0882C10.7936 17.2634 9.9834 15.8534 9.9834 14.2561C9.9834 13.4126 10.2108 12.6223 10.605 11.942C12.8688 14.7277 16.252 16.5598 20.0673 16.7523C19.9886 16.415 19.948 16.0637 19.948 15.7025C19.948 13.161 22.004 11.0991 24.5391 11.0991C25.8596 11.0991 27.0522 11.6589 27.8899 12.5538C28.9357 12.3469 29.9178 11.9637 30.8049 11.4364C30.4616 12.5109 29.7341 13.4126 28.7862 13.9828C29.7148 13.8714 30.5999 13.6244 31.4223 13.2577C30.808 14.1811 30.0289 14.9922 29.1326 15.6419Z" fill="white"/>
</svg>
